<mxfile host="app.diagrams.net" modified="2024-05-29T22:08:19.184Z" agent="Mozilla/5.0 (Macintosh; Intel Mac OS X 10_15_7) AppleWebKit/605.1.15 (KHTML, like Gecko) Version/17.5 Safari/605.1.15" etag="csz7gVO9u_S7ZPQRkto4" version="24.4.9" type="github">
  <diagram id="R2lEEEUBdFMjLlhIrx00" name="Page-1">
    <mxGraphModel dx="1419" dy="1927" grid="1" gridSize="12" guides="1" tooltips="1" connect="1" arrows="1" fold="1" page="1" pageScale="1" pageWidth="850" pageHeight="1100" math="0" shadow="0" extFonts="Permanent Marker^https://fonts.googleapis.com/css?family=Permanent+Marker">
      <root>
        <mxCell id="0" />
        <mxCell id="1" parent="0" />
        <mxCell id="C-vyLk0tnHw3VtMMgP7b-13" value="Customers" style="shape=table;startSize=30;container=1;collapsible=1;childLayout=tableLayout;fixedRows=1;rowLines=0;fontStyle=1;align=center;resizeLast=1;" parent="1" vertex="1">
          <mxGeometry x="566" y="36" width="250" height="312" as="geometry" />
        </mxCell>
        <mxCell id="C-vyLk0tnHw3VtMMgP7b-14" value="" style="shape=partialRectangle;collapsible=0;dropTarget=0;pointerEvents=0;fillColor=none;points=[[0,0.5],[1,0.5]];portConstraint=eastwest;top=0;left=0;right=0;bottom=1;" parent="C-vyLk0tnHw3VtMMgP7b-13" vertex="1">
          <mxGeometry y="30" width="250" height="30" as="geometry" />
        </mxCell>
        <mxCell id="C-vyLk0tnHw3VtMMgP7b-15" value="PK" style="shape=partialRectangle;overflow=hidden;connectable=0;fillColor=none;top=0;left=0;bottom=0;right=0;fontStyle=1;" parent="C-vyLk0tnHw3VtMMgP7b-14" vertex="1">
          <mxGeometry width="30" height="30" as="geometry">
            <mxRectangle width="30" height="30" as="alternateBounds" />
          </mxGeometry>
        </mxCell>
        <mxCell id="C-vyLk0tnHw3VtMMgP7b-16" value="CustomerKey INT" style="shape=partialRectangle;overflow=hidden;connectable=0;fillColor=none;top=0;left=0;bottom=0;right=0;align=left;spacingLeft=6;fontStyle=5;" parent="C-vyLk0tnHw3VtMMgP7b-14" vertex="1">
          <mxGeometry x="30" width="220" height="30" as="geometry">
            <mxRectangle width="220" height="30" as="alternateBounds" />
          </mxGeometry>
        </mxCell>
        <mxCell id="l6hNSntbj8wJOxNSr21J-40" value="" style="shape=partialRectangle;collapsible=0;dropTarget=0;pointerEvents=0;fillColor=none;points=[[0,0.5],[1,0.5]];portConstraint=eastwest;top=0;left=0;right=0;bottom=0;" vertex="1" parent="C-vyLk0tnHw3VtMMgP7b-13">
          <mxGeometry y="60" width="250" height="30" as="geometry" />
        </mxCell>
        <mxCell id="l6hNSntbj8wJOxNSr21J-41" value="" style="shape=partialRectangle;overflow=hidden;connectable=0;fillColor=none;top=0;left=0;bottom=0;right=0;" vertex="1" parent="l6hNSntbj8wJOxNSr21J-40">
          <mxGeometry width="30" height="30" as="geometry">
            <mxRectangle width="30" height="30" as="alternateBounds" />
          </mxGeometry>
        </mxCell>
        <mxCell id="l6hNSntbj8wJOxNSr21J-42" value="CustomerID INT" style="shape=partialRectangle;overflow=hidden;connectable=0;fillColor=none;top=0;left=0;bottom=0;right=0;align=left;spacingLeft=6;" vertex="1" parent="l6hNSntbj8wJOxNSr21J-40">
          <mxGeometry x="30" width="220" height="30" as="geometry">
            <mxRectangle width="220" height="30" as="alternateBounds" />
          </mxGeometry>
        </mxCell>
        <mxCell id="C-vyLk0tnHw3VtMMgP7b-20" value="" style="shape=partialRectangle;collapsible=0;dropTarget=0;pointerEvents=0;fillColor=none;points=[[0,0.5],[1,0.5]];portConstraint=eastwest;top=0;left=0;right=0;bottom=0;" parent="C-vyLk0tnHw3VtMMgP7b-13" vertex="1">
          <mxGeometry y="90" width="250" height="30" as="geometry" />
        </mxCell>
        <mxCell id="C-vyLk0tnHw3VtMMgP7b-21" value="" style="shape=partialRectangle;overflow=hidden;connectable=0;fillColor=none;top=0;left=0;bottom=0;right=0;" parent="C-vyLk0tnHw3VtMMgP7b-20" vertex="1">
          <mxGeometry width="30" height="30" as="geometry">
            <mxRectangle width="30" height="30" as="alternateBounds" />
          </mxGeometry>
        </mxCell>
        <mxCell id="C-vyLk0tnHw3VtMMgP7b-22" value="FullName VARCHAR(255)" style="shape=partialRectangle;overflow=hidden;connectable=0;fillColor=none;top=0;left=0;bottom=0;right=0;align=left;spacingLeft=6;" parent="C-vyLk0tnHw3VtMMgP7b-20" vertex="1">
          <mxGeometry x="30" width="220" height="30" as="geometry">
            <mxRectangle width="220" height="30" as="alternateBounds" />
          </mxGeometry>
        </mxCell>
        <mxCell id="l6hNSntbj8wJOxNSr21J-91" value="" style="shape=tableRow;horizontal=0;startSize=0;swimlaneHead=0;swimlaneBody=0;fillColor=none;collapsible=0;dropTarget=0;points=[[0,0.5],[1,0.5]];portConstraint=eastwest;top=0;left=0;right=0;bottom=0;" vertex="1" parent="C-vyLk0tnHw3VtMMgP7b-13">
          <mxGeometry y="120" width="250" height="30" as="geometry" />
        </mxCell>
        <mxCell id="l6hNSntbj8wJOxNSr21J-92" value="" style="shape=partialRectangle;connectable=0;fillColor=none;top=0;left=0;bottom=0;right=0;editable=1;overflow=hidden;" vertex="1" parent="l6hNSntbj8wJOxNSr21J-91">
          <mxGeometry width="30" height="30" as="geometry">
            <mxRectangle width="30" height="30" as="alternateBounds" />
          </mxGeometry>
        </mxCell>
        <mxCell id="l6hNSntbj8wJOxNSr21J-93" value="AGE INT" style="shape=partialRectangle;connectable=0;fillColor=none;top=0;left=0;bottom=0;right=0;align=left;spacingLeft=6;overflow=hidden;" vertex="1" parent="l6hNSntbj8wJOxNSr21J-91">
          <mxGeometry x="30" width="220" height="30" as="geometry">
            <mxRectangle width="220" height="30" as="alternateBounds" />
          </mxGeometry>
        </mxCell>
        <mxCell id="l6hNSntbj8wJOxNSr21J-95" value="" style="shape=tableRow;horizontal=0;startSize=0;swimlaneHead=0;swimlaneBody=0;fillColor=none;collapsible=0;dropTarget=0;points=[[0,0.5],[1,0.5]];portConstraint=eastwest;top=0;left=0;right=0;bottom=0;" vertex="1" parent="C-vyLk0tnHw3VtMMgP7b-13">
          <mxGeometry y="150" width="250" height="30" as="geometry" />
        </mxCell>
        <mxCell id="l6hNSntbj8wJOxNSr21J-96" value="" style="shape=partialRectangle;connectable=0;fillColor=none;top=0;left=0;bottom=0;right=0;editable=1;overflow=hidden;" vertex="1" parent="l6hNSntbj8wJOxNSr21J-95">
          <mxGeometry width="30" height="30" as="geometry">
            <mxRectangle width="30" height="30" as="alternateBounds" />
          </mxGeometry>
        </mxCell>
        <mxCell id="l6hNSntbj8wJOxNSr21J-97" value="MaritalStatus VARCHAR(10)" style="shape=partialRectangle;connectable=0;fillColor=none;top=0;left=0;bottom=0;right=0;align=left;spacingLeft=6;overflow=hidden;" vertex="1" parent="l6hNSntbj8wJOxNSr21J-95">
          <mxGeometry x="30" width="220" height="30" as="geometry">
            <mxRectangle width="220" height="30" as="alternateBounds" />
          </mxGeometry>
        </mxCell>
        <mxCell id="l6hNSntbj8wJOxNSr21J-99" value="" style="shape=tableRow;horizontal=0;startSize=0;swimlaneHead=0;swimlaneBody=0;fillColor=none;collapsible=0;dropTarget=0;points=[[0,0.5],[1,0.5]];portConstraint=eastwest;top=0;left=0;right=0;bottom=0;" vertex="1" parent="C-vyLk0tnHw3VtMMgP7b-13">
          <mxGeometry y="180" width="250" height="30" as="geometry" />
        </mxCell>
        <mxCell id="l6hNSntbj8wJOxNSr21J-100" value="" style="shape=partialRectangle;connectable=0;fillColor=none;top=0;left=0;bottom=0;right=0;editable=1;overflow=hidden;" vertex="1" parent="l6hNSntbj8wJOxNSr21J-99">
          <mxGeometry width="30" height="30" as="geometry">
            <mxRectangle width="30" height="30" as="alternateBounds" />
          </mxGeometry>
        </mxCell>
        <mxCell id="l6hNSntbj8wJOxNSr21J-101" value="Gender VARCHAR(10)" style="shape=partialRectangle;connectable=0;fillColor=none;top=0;left=0;bottom=0;right=0;align=left;spacingLeft=6;overflow=hidden;" vertex="1" parent="l6hNSntbj8wJOxNSr21J-99">
          <mxGeometry x="30" width="220" height="30" as="geometry">
            <mxRectangle width="220" height="30" as="alternateBounds" />
          </mxGeometry>
        </mxCell>
        <mxCell id="l6hNSntbj8wJOxNSr21J-103" value="" style="shape=tableRow;horizontal=0;startSize=0;swimlaneHead=0;swimlaneBody=0;fillColor=none;collapsible=0;dropTarget=0;points=[[0,0.5],[1,0.5]];portConstraint=eastwest;top=0;left=0;right=0;bottom=0;" vertex="1" parent="C-vyLk0tnHw3VtMMgP7b-13">
          <mxGeometry y="210" width="250" height="30" as="geometry" />
        </mxCell>
        <mxCell id="l6hNSntbj8wJOxNSr21J-104" value="" style="shape=partialRectangle;connectable=0;fillColor=none;top=0;left=0;bottom=0;right=0;editable=1;overflow=hidden;" vertex="1" parent="l6hNSntbj8wJOxNSr21J-103">
          <mxGeometry width="30" height="30" as="geometry">
            <mxRectangle width="30" height="30" as="alternateBounds" />
          </mxGeometry>
        </mxCell>
        <mxCell id="l6hNSntbj8wJOxNSr21J-105" value="Profession VARCHAR(45)" style="shape=partialRectangle;connectable=0;fillColor=none;top=0;left=0;bottom=0;right=0;align=left;spacingLeft=6;overflow=hidden;" vertex="1" parent="l6hNSntbj8wJOxNSr21J-103">
          <mxGeometry x="30" width="220" height="30" as="geometry">
            <mxRectangle width="220" height="30" as="alternateBounds" />
          </mxGeometry>
        </mxCell>
        <mxCell id="l6hNSntbj8wJOxNSr21J-107" value="" style="shape=tableRow;horizontal=0;startSize=0;swimlaneHead=0;swimlaneBody=0;fillColor=none;collapsible=0;dropTarget=0;points=[[0,0.5],[1,0.5]];portConstraint=eastwest;top=0;left=0;right=0;bottom=0;" vertex="1" parent="C-vyLk0tnHw3VtMMgP7b-13">
          <mxGeometry y="240" width="250" height="30" as="geometry" />
        </mxCell>
        <mxCell id="l6hNSntbj8wJOxNSr21J-108" value="" style="shape=partialRectangle;connectable=0;fillColor=none;top=0;left=0;bottom=0;right=0;editable=1;overflow=hidden;" vertex="1" parent="l6hNSntbj8wJOxNSr21J-107">
          <mxGeometry width="30" height="30" as="geometry">
            <mxRectangle width="30" height="30" as="alternateBounds" />
          </mxGeometry>
        </mxCell>
        <mxCell id="l6hNSntbj8wJOxNSr21J-109" value="IncomeLevel VARCHAR(45)" style="shape=partialRectangle;connectable=0;fillColor=none;top=0;left=0;bottom=0;right=0;align=left;spacingLeft=6;overflow=hidden;" vertex="1" parent="l6hNSntbj8wJOxNSr21J-107">
          <mxGeometry x="30" width="220" height="30" as="geometry">
            <mxRectangle width="220" height="30" as="alternateBounds" />
          </mxGeometry>
        </mxCell>
        <mxCell id="l6hNSntbj8wJOxNSr21J-111" value="" style="shape=tableRow;horizontal=0;startSize=0;swimlaneHead=0;swimlaneBody=0;fillColor=none;collapsible=0;dropTarget=0;points=[[0,0.5],[1,0.5]];portConstraint=eastwest;top=0;left=0;right=0;bottom=0;" vertex="1" parent="C-vyLk0tnHw3VtMMgP7b-13">
          <mxGeometry y="270" width="250" height="30" as="geometry" />
        </mxCell>
        <mxCell id="l6hNSntbj8wJOxNSr21J-112" value="" style="shape=partialRectangle;connectable=0;fillColor=none;top=0;left=0;bottom=0;right=0;editable=1;overflow=hidden;" vertex="1" parent="l6hNSntbj8wJOxNSr21J-111">
          <mxGeometry width="30" height="30" as="geometry">
            <mxRectangle width="30" height="30" as="alternateBounds" />
          </mxGeometry>
        </mxCell>
        <mxCell id="l6hNSntbj8wJOxNSr21J-113" value="AgeBand VARCHAR(45)" style="shape=partialRectangle;connectable=0;fillColor=none;top=0;left=0;bottom=0;right=0;align=left;spacingLeft=6;overflow=hidden;" vertex="1" parent="l6hNSntbj8wJOxNSr21J-111">
          <mxGeometry x="30" width="220" height="30" as="geometry">
            <mxRectangle width="220" height="30" as="alternateBounds" />
          </mxGeometry>
        </mxCell>
        <mxCell id="l6hNSntbj8wJOxNSr21J-1" value="Time" style="shape=table;startSize=36;container=1;collapsible=1;childLayout=tableLayout;fixedRows=1;rowLines=0;fontStyle=1;align=center;resizeLast=1;html=1;" vertex="1" parent="1">
          <mxGeometry x="24" y="576" width="216" height="228" as="geometry" />
        </mxCell>
        <mxCell id="l6hNSntbj8wJOxNSr21J-2" value="" style="shape=tableRow;horizontal=0;startSize=0;swimlaneHead=0;swimlaneBody=0;fillColor=none;collapsible=0;dropTarget=0;points=[[0,0.5],[1,0.5]];portConstraint=eastwest;top=0;left=0;right=0;bottom=1;" vertex="1" parent="l6hNSntbj8wJOxNSr21J-1">
          <mxGeometry y="36" width="216" height="30" as="geometry" />
        </mxCell>
        <mxCell id="l6hNSntbj8wJOxNSr21J-3" value="PK" style="shape=partialRectangle;connectable=0;fillColor=none;top=0;left=0;bottom=0;right=0;fontStyle=1;overflow=hidden;whiteSpace=wrap;html=1;" vertex="1" parent="l6hNSntbj8wJOxNSr21J-2">
          <mxGeometry width="30" height="30" as="geometry">
            <mxRectangle width="30" height="30" as="alternateBounds" />
          </mxGeometry>
        </mxCell>
        <mxCell id="l6hNSntbj8wJOxNSr21J-4" value="TimeKey INT" style="shape=partialRectangle;connectable=0;fillColor=none;top=0;left=0;bottom=0;right=0;align=left;spacingLeft=6;fontStyle=5;overflow=hidden;whiteSpace=wrap;html=1;" vertex="1" parent="l6hNSntbj8wJOxNSr21J-2">
          <mxGeometry x="30" width="186" height="30" as="geometry">
            <mxRectangle width="186" height="30" as="alternateBounds" />
          </mxGeometry>
        </mxCell>
        <mxCell id="l6hNSntbj8wJOxNSr21J-5" value="" style="shape=tableRow;horizontal=0;startSize=0;swimlaneHead=0;swimlaneBody=0;fillColor=none;collapsible=0;dropTarget=0;points=[[0,0.5],[1,0.5]];portConstraint=eastwest;top=0;left=0;right=0;bottom=0;" vertex="1" parent="l6hNSntbj8wJOxNSr21J-1">
          <mxGeometry y="66" width="216" height="30" as="geometry" />
        </mxCell>
        <mxCell id="l6hNSntbj8wJOxNSr21J-6" value="" style="shape=partialRectangle;connectable=0;fillColor=none;top=0;left=0;bottom=0;right=0;editable=1;overflow=hidden;whiteSpace=wrap;html=1;" vertex="1" parent="l6hNSntbj8wJOxNSr21J-5">
          <mxGeometry width="30" height="30" as="geometry">
            <mxRectangle width="30" height="30" as="alternateBounds" />
          </mxGeometry>
        </mxCell>
        <mxCell id="l6hNSntbj8wJOxNSr21J-7" value="FullDate DATE" style="shape=partialRectangle;connectable=0;fillColor=none;top=0;left=0;bottom=0;right=0;align=left;spacingLeft=6;overflow=hidden;whiteSpace=wrap;html=1;" vertex="1" parent="l6hNSntbj8wJOxNSr21J-5">
          <mxGeometry x="30" width="186" height="30" as="geometry">
            <mxRectangle width="186" height="30" as="alternateBounds" />
          </mxGeometry>
        </mxCell>
        <mxCell id="l6hNSntbj8wJOxNSr21J-8" value="" style="shape=tableRow;horizontal=0;startSize=0;swimlaneHead=0;swimlaneBody=0;fillColor=none;collapsible=0;dropTarget=0;points=[[0,0.5],[1,0.5]];portConstraint=eastwest;top=0;left=0;right=0;bottom=0;" vertex="1" parent="l6hNSntbj8wJOxNSr21J-1">
          <mxGeometry y="96" width="216" height="30" as="geometry" />
        </mxCell>
        <mxCell id="l6hNSntbj8wJOxNSr21J-9" value="" style="shape=partialRectangle;connectable=0;fillColor=none;top=0;left=0;bottom=0;right=0;editable=1;overflow=hidden;whiteSpace=wrap;html=1;" vertex="1" parent="l6hNSntbj8wJOxNSr21J-8">
          <mxGeometry width="30" height="30" as="geometry">
            <mxRectangle width="30" height="30" as="alternateBounds" />
          </mxGeometry>
        </mxCell>
        <mxCell id="l6hNSntbj8wJOxNSr21J-10" value="Year INT" style="shape=partialRectangle;connectable=0;fillColor=none;top=0;left=0;bottom=0;right=0;align=left;spacingLeft=6;overflow=hidden;whiteSpace=wrap;html=1;" vertex="1" parent="l6hNSntbj8wJOxNSr21J-8">
          <mxGeometry x="30" width="186" height="30" as="geometry">
            <mxRectangle width="186" height="30" as="alternateBounds" />
          </mxGeometry>
        </mxCell>
        <mxCell id="l6hNSntbj8wJOxNSr21J-11" value="" style="shape=tableRow;horizontal=0;startSize=0;swimlaneHead=0;swimlaneBody=0;fillColor=none;collapsible=0;dropTarget=0;points=[[0,0.5],[1,0.5]];portConstraint=eastwest;top=0;left=0;right=0;bottom=0;" vertex="1" parent="l6hNSntbj8wJOxNSr21J-1">
          <mxGeometry y="126" width="216" height="30" as="geometry" />
        </mxCell>
        <mxCell id="l6hNSntbj8wJOxNSr21J-12" value="" style="shape=partialRectangle;connectable=0;fillColor=none;top=0;left=0;bottom=0;right=0;editable=1;overflow=hidden;whiteSpace=wrap;html=1;" vertex="1" parent="l6hNSntbj8wJOxNSr21J-11">
          <mxGeometry width="30" height="30" as="geometry">
            <mxRectangle width="30" height="30" as="alternateBounds" />
          </mxGeometry>
        </mxCell>
        <mxCell id="l6hNSntbj8wJOxNSr21J-13" value="Quarter VARCHAR(45)" style="shape=partialRectangle;connectable=0;fillColor=none;top=0;left=0;bottom=0;right=0;align=left;spacingLeft=6;overflow=hidden;whiteSpace=wrap;html=1;" vertex="1" parent="l6hNSntbj8wJOxNSr21J-11">
          <mxGeometry x="30" width="186" height="30" as="geometry">
            <mxRectangle width="186" height="30" as="alternateBounds" />
          </mxGeometry>
        </mxCell>
        <mxCell id="l6hNSntbj8wJOxNSr21J-119" value="" style="shape=tableRow;horizontal=0;startSize=0;swimlaneHead=0;swimlaneBody=0;fillColor=none;collapsible=0;dropTarget=0;points=[[0,0.5],[1,0.5]];portConstraint=eastwest;top=0;left=0;right=0;bottom=0;" vertex="1" parent="l6hNSntbj8wJOxNSr21J-1">
          <mxGeometry y="156" width="216" height="30" as="geometry" />
        </mxCell>
        <mxCell id="l6hNSntbj8wJOxNSr21J-120" value="" style="shape=partialRectangle;connectable=0;fillColor=none;top=0;left=0;bottom=0;right=0;editable=1;overflow=hidden;" vertex="1" parent="l6hNSntbj8wJOxNSr21J-119">
          <mxGeometry width="30" height="30" as="geometry">
            <mxRectangle width="30" height="30" as="alternateBounds" />
          </mxGeometry>
        </mxCell>
        <mxCell id="l6hNSntbj8wJOxNSr21J-121" value="Month INT" style="shape=partialRectangle;connectable=0;fillColor=none;top=0;left=0;bottom=0;right=0;align=left;spacingLeft=6;overflow=hidden;" vertex="1" parent="l6hNSntbj8wJOxNSr21J-119">
          <mxGeometry x="30" width="186" height="30" as="geometry">
            <mxRectangle width="186" height="30" as="alternateBounds" />
          </mxGeometry>
        </mxCell>
        <mxCell id="l6hNSntbj8wJOxNSr21J-123" value="" style="shape=tableRow;horizontal=0;startSize=0;swimlaneHead=0;swimlaneBody=0;fillColor=none;collapsible=0;dropTarget=0;points=[[0,0.5],[1,0.5]];portConstraint=eastwest;top=0;left=0;right=0;bottom=0;" vertex="1" parent="l6hNSntbj8wJOxNSr21J-1">
          <mxGeometry y="186" width="216" height="30" as="geometry" />
        </mxCell>
        <mxCell id="l6hNSntbj8wJOxNSr21J-124" value="" style="shape=partialRectangle;connectable=0;fillColor=none;top=0;left=0;bottom=0;right=0;editable=1;overflow=hidden;" vertex="1" parent="l6hNSntbj8wJOxNSr21J-123">
          <mxGeometry width="30" height="30" as="geometry">
            <mxRectangle width="30" height="30" as="alternateBounds" />
          </mxGeometry>
        </mxCell>
        <mxCell id="l6hNSntbj8wJOxNSr21J-125" value="Event VARCHAR(255)" style="shape=partialRectangle;connectable=0;fillColor=none;top=0;left=0;bottom=0;right=0;align=left;spacingLeft=6;overflow=hidden;" vertex="1" parent="l6hNSntbj8wJOxNSr21J-123">
          <mxGeometry x="30" width="186" height="30" as="geometry">
            <mxRectangle width="186" height="30" as="alternateBounds" />
          </mxGeometry>
        </mxCell>
        <mxCell id="l6hNSntbj8wJOxNSr21J-14" value="Products" style="shape=table;startSize=30;container=1;collapsible=1;childLayout=tableLayout;fixedRows=1;rowLines=0;fontStyle=1;align=center;resizeLast=1;html=1;" vertex="1" parent="1">
          <mxGeometry x="620" y="510" width="230" height="162" as="geometry" />
        </mxCell>
        <mxCell id="l6hNSntbj8wJOxNSr21J-15" value="" style="shape=tableRow;horizontal=0;startSize=0;swimlaneHead=0;swimlaneBody=0;fillColor=none;collapsible=0;dropTarget=0;points=[[0,0.5],[1,0.5]];portConstraint=eastwest;top=0;left=0;right=0;bottom=1;" vertex="1" parent="l6hNSntbj8wJOxNSr21J-14">
          <mxGeometry y="30" width="230" height="30" as="geometry" />
        </mxCell>
        <mxCell id="l6hNSntbj8wJOxNSr21J-16" value="PK" style="shape=partialRectangle;connectable=0;fillColor=none;top=0;left=0;bottom=0;right=0;fontStyle=1;overflow=hidden;whiteSpace=wrap;html=1;" vertex="1" parent="l6hNSntbj8wJOxNSr21J-15">
          <mxGeometry width="30" height="30" as="geometry">
            <mxRectangle width="30" height="30" as="alternateBounds" />
          </mxGeometry>
        </mxCell>
        <mxCell id="l6hNSntbj8wJOxNSr21J-17" value="ProductKey INT" style="shape=partialRectangle;connectable=0;fillColor=none;top=0;left=0;bottom=0;right=0;align=left;spacingLeft=6;fontStyle=5;overflow=hidden;whiteSpace=wrap;html=1;" vertex="1" parent="l6hNSntbj8wJOxNSr21J-15">
          <mxGeometry x="30" width="200" height="30" as="geometry">
            <mxRectangle width="200" height="30" as="alternateBounds" />
          </mxGeometry>
        </mxCell>
        <mxCell id="l6hNSntbj8wJOxNSr21J-18" value="" style="shape=tableRow;horizontal=0;startSize=0;swimlaneHead=0;swimlaneBody=0;fillColor=none;collapsible=0;dropTarget=0;points=[[0,0.5],[1,0.5]];portConstraint=eastwest;top=0;left=0;right=0;bottom=0;" vertex="1" parent="l6hNSntbj8wJOxNSr21J-14">
          <mxGeometry y="60" width="230" height="30" as="geometry" />
        </mxCell>
        <mxCell id="l6hNSntbj8wJOxNSr21J-19" value="" style="shape=partialRectangle;connectable=0;fillColor=none;top=0;left=0;bottom=0;right=0;editable=1;overflow=hidden;whiteSpace=wrap;html=1;" vertex="1" parent="l6hNSntbj8wJOxNSr21J-18">
          <mxGeometry width="30" height="30" as="geometry">
            <mxRectangle width="30" height="30" as="alternateBounds" />
          </mxGeometry>
        </mxCell>
        <mxCell id="l6hNSntbj8wJOxNSr21J-20" value="ProductName VARCHAR(255)" style="shape=partialRectangle;connectable=0;fillColor=none;top=0;left=0;bottom=0;right=0;align=left;spacingLeft=6;overflow=hidden;whiteSpace=wrap;html=1;" vertex="1" parent="l6hNSntbj8wJOxNSr21J-18">
          <mxGeometry x="30" width="200" height="30" as="geometry">
            <mxRectangle width="200" height="30" as="alternateBounds" />
          </mxGeometry>
        </mxCell>
        <mxCell id="l6hNSntbj8wJOxNSr21J-21" value="" style="shape=tableRow;horizontal=0;startSize=0;swimlaneHead=0;swimlaneBody=0;fillColor=none;collapsible=0;dropTarget=0;points=[[0,0.5],[1,0.5]];portConstraint=eastwest;top=0;left=0;right=0;bottom=0;" vertex="1" parent="l6hNSntbj8wJOxNSr21J-14">
          <mxGeometry y="90" width="230" height="30" as="geometry" />
        </mxCell>
        <mxCell id="l6hNSntbj8wJOxNSr21J-22" value="" style="shape=partialRectangle;connectable=0;fillColor=none;top=0;left=0;bottom=0;right=0;editable=1;overflow=hidden;whiteSpace=wrap;html=1;" vertex="1" parent="l6hNSntbj8wJOxNSr21J-21">
          <mxGeometry width="30" height="30" as="geometry">
            <mxRectangle width="30" height="30" as="alternateBounds" />
          </mxGeometry>
        </mxCell>
        <mxCell id="l6hNSntbj8wJOxNSr21J-23" value="CategoryKey VARCHAR(45)" style="shape=partialRectangle;connectable=0;fillColor=none;top=0;left=0;bottom=0;right=0;align=left;spacingLeft=6;overflow=hidden;whiteSpace=wrap;html=1;" vertex="1" parent="l6hNSntbj8wJOxNSr21J-21">
          <mxGeometry x="30" width="200" height="30" as="geometry">
            <mxRectangle width="200" height="30" as="alternateBounds" />
          </mxGeometry>
        </mxCell>
        <mxCell id="l6hNSntbj8wJOxNSr21J-115" value="" style="shape=tableRow;horizontal=0;startSize=0;swimlaneHead=0;swimlaneBody=0;fillColor=none;collapsible=0;dropTarget=0;points=[[0,0.5],[1,0.5]];portConstraint=eastwest;top=0;left=0;right=0;bottom=0;" vertex="1" parent="l6hNSntbj8wJOxNSr21J-14">
          <mxGeometry y="120" width="230" height="30" as="geometry" />
        </mxCell>
        <mxCell id="l6hNSntbj8wJOxNSr21J-116" value="" style="shape=partialRectangle;connectable=0;fillColor=none;top=0;left=0;bottom=0;right=0;editable=1;overflow=hidden;" vertex="1" parent="l6hNSntbj8wJOxNSr21J-115">
          <mxGeometry width="30" height="30" as="geometry">
            <mxRectangle width="30" height="30" as="alternateBounds" />
          </mxGeometry>
        </mxCell>
        <mxCell id="l6hNSntbj8wJOxNSr21J-117" value="Description VARCHAR(255)" style="shape=partialRectangle;connectable=0;fillColor=none;top=0;left=0;bottom=0;right=0;align=left;spacingLeft=6;overflow=hidden;" vertex="1" parent="l6hNSntbj8wJOxNSr21J-115">
          <mxGeometry x="30" width="200" height="30" as="geometry">
            <mxRectangle width="200" height="30" as="alternateBounds" />
          </mxGeometry>
        </mxCell>
        <mxCell id="l6hNSntbj8wJOxNSr21J-27" value="Location" style="shape=table;startSize=30;container=1;collapsible=1;childLayout=tableLayout;fixedRows=1;rowLines=0;fontStyle=1;align=center;resizeLast=1;html=1;" vertex="1" parent="1">
          <mxGeometry x="12" y="48" width="192" height="162" as="geometry" />
        </mxCell>
        <mxCell id="l6hNSntbj8wJOxNSr21J-28" value="" style="shape=tableRow;horizontal=0;startSize=0;swimlaneHead=0;swimlaneBody=0;fillColor=none;collapsible=0;dropTarget=0;points=[[0,0.5],[1,0.5]];portConstraint=eastwest;top=0;left=0;right=0;bottom=1;" vertex="1" parent="l6hNSntbj8wJOxNSr21J-27">
          <mxGeometry y="30" width="192" height="30" as="geometry" />
        </mxCell>
        <mxCell id="l6hNSntbj8wJOxNSr21J-29" value="PK" style="shape=partialRectangle;connectable=0;fillColor=none;top=0;left=0;bottom=0;right=0;fontStyle=1;overflow=hidden;whiteSpace=wrap;html=1;" vertex="1" parent="l6hNSntbj8wJOxNSr21J-28">
          <mxGeometry width="30" height="30" as="geometry">
            <mxRectangle width="30" height="30" as="alternateBounds" />
          </mxGeometry>
        </mxCell>
        <mxCell id="l6hNSntbj8wJOxNSr21J-30" value="LocationID INT" style="shape=partialRectangle;connectable=0;fillColor=none;top=0;left=0;bottom=0;right=0;align=left;spacingLeft=6;fontStyle=5;overflow=hidden;whiteSpace=wrap;html=1;" vertex="1" parent="l6hNSntbj8wJOxNSr21J-28">
          <mxGeometry x="30" width="162" height="30" as="geometry">
            <mxRectangle width="162" height="30" as="alternateBounds" />
          </mxGeometry>
        </mxCell>
        <mxCell id="l6hNSntbj8wJOxNSr21J-31" value="" style="shape=tableRow;horizontal=0;startSize=0;swimlaneHead=0;swimlaneBody=0;fillColor=none;collapsible=0;dropTarget=0;points=[[0,0.5],[1,0.5]];portConstraint=eastwest;top=0;left=0;right=0;bottom=0;" vertex="1" parent="l6hNSntbj8wJOxNSr21J-27">
          <mxGeometry y="60" width="192" height="36" as="geometry" />
        </mxCell>
        <mxCell id="l6hNSntbj8wJOxNSr21J-32" value="" style="shape=partialRectangle;connectable=0;fillColor=none;top=0;left=0;bottom=0;right=0;editable=1;overflow=hidden;whiteSpace=wrap;html=1;" vertex="1" parent="l6hNSntbj8wJOxNSr21J-31">
          <mxGeometry width="30" height="36" as="geometry">
            <mxRectangle width="30" height="36" as="alternateBounds" />
          </mxGeometry>
        </mxCell>
        <mxCell id="l6hNSntbj8wJOxNSr21J-33" value="Continent VARCHAR(45)" style="shape=partialRectangle;connectable=0;fillColor=none;top=0;left=0;bottom=0;right=0;align=left;spacingLeft=6;overflow=hidden;whiteSpace=wrap;html=1;" vertex="1" parent="l6hNSntbj8wJOxNSr21J-31">
          <mxGeometry x="30" width="162" height="36" as="geometry">
            <mxRectangle width="162" height="36" as="alternateBounds" />
          </mxGeometry>
        </mxCell>
        <mxCell id="l6hNSntbj8wJOxNSr21J-34" value="" style="shape=tableRow;horizontal=0;startSize=0;swimlaneHead=0;swimlaneBody=0;fillColor=none;collapsible=0;dropTarget=0;points=[[0,0.5],[1,0.5]];portConstraint=eastwest;top=0;left=0;right=0;bottom=0;" vertex="1" parent="l6hNSntbj8wJOxNSr21J-27">
          <mxGeometry y="96" width="192" height="30" as="geometry" />
        </mxCell>
        <mxCell id="l6hNSntbj8wJOxNSr21J-35" value="" style="shape=partialRectangle;connectable=0;fillColor=none;top=0;left=0;bottom=0;right=0;editable=1;overflow=hidden;whiteSpace=wrap;html=1;" vertex="1" parent="l6hNSntbj8wJOxNSr21J-34">
          <mxGeometry width="30" height="30" as="geometry">
            <mxRectangle width="30" height="30" as="alternateBounds" />
          </mxGeometry>
        </mxCell>
        <mxCell id="l6hNSntbj8wJOxNSr21J-36" value="Country VARCHAR(45)" style="shape=partialRectangle;connectable=0;fillColor=none;top=0;left=0;bottom=0;right=0;align=left;spacingLeft=6;overflow=hidden;whiteSpace=wrap;html=1;" vertex="1" parent="l6hNSntbj8wJOxNSr21J-34">
          <mxGeometry x="30" width="162" height="30" as="geometry">
            <mxRectangle width="162" height="30" as="alternateBounds" />
          </mxGeometry>
        </mxCell>
        <mxCell id="l6hNSntbj8wJOxNSr21J-37" value="" style="shape=tableRow;horizontal=0;startSize=0;swimlaneHead=0;swimlaneBody=0;fillColor=none;collapsible=0;dropTarget=0;points=[[0,0.5],[1,0.5]];portConstraint=eastwest;top=0;left=0;right=0;bottom=0;" vertex="1" parent="l6hNSntbj8wJOxNSr21J-27">
          <mxGeometry y="126" width="192" height="30" as="geometry" />
        </mxCell>
        <mxCell id="l6hNSntbj8wJOxNSr21J-38" value="" style="shape=partialRectangle;connectable=0;fillColor=none;top=0;left=0;bottom=0;right=0;editable=1;overflow=hidden;whiteSpace=wrap;html=1;" vertex="1" parent="l6hNSntbj8wJOxNSr21J-37">
          <mxGeometry width="30" height="30" as="geometry">
            <mxRectangle width="30" height="30" as="alternateBounds" />
          </mxGeometry>
        </mxCell>
        <mxCell id="l6hNSntbj8wJOxNSr21J-39" value="City VARCHAR (45)" style="shape=partialRectangle;connectable=0;fillColor=none;top=0;left=0;bottom=0;right=0;align=left;spacingLeft=6;overflow=hidden;whiteSpace=wrap;html=1;" vertex="1" parent="l6hNSntbj8wJOxNSr21J-37">
          <mxGeometry x="30" width="162" height="30" as="geometry">
            <mxRectangle width="162" height="30" as="alternateBounds" />
          </mxGeometry>
        </mxCell>
        <mxCell id="C-vyLk0tnHw3VtMMgP7b-2" value="Sales" style="shape=table;startSize=30;container=1;collapsible=1;childLayout=tableLayout;fixedRows=1;rowLines=0;fontStyle=1;align=center;resizeLast=1;" parent="1" vertex="1">
          <mxGeometry x="300" y="228" width="216" height="300" as="geometry" />
        </mxCell>
        <mxCell id="C-vyLk0tnHw3VtMMgP7b-3" value="" style="shape=partialRectangle;collapsible=0;dropTarget=0;pointerEvents=0;fillColor=none;points=[[0,0.5],[1,0.5]];portConstraint=eastwest;top=0;left=0;right=0;bottom=1;" parent="C-vyLk0tnHw3VtMMgP7b-2" vertex="1">
          <mxGeometry y="30" width="216" height="30" as="geometry" />
        </mxCell>
        <mxCell id="C-vyLk0tnHw3VtMMgP7b-4" value="PK" style="shape=partialRectangle;overflow=hidden;connectable=0;fillColor=none;top=0;left=0;bottom=0;right=0;fontStyle=1;" parent="C-vyLk0tnHw3VtMMgP7b-3" vertex="1">
          <mxGeometry width="30" height="30" as="geometry">
            <mxRectangle width="30" height="30" as="alternateBounds" />
          </mxGeometry>
        </mxCell>
        <mxCell id="C-vyLk0tnHw3VtMMgP7b-5" value="SalesKey INT" style="shape=partialRectangle;overflow=hidden;connectable=0;fillColor=none;top=0;left=0;bottom=0;right=0;align=left;spacingLeft=6;fontStyle=5;" parent="C-vyLk0tnHw3VtMMgP7b-3" vertex="1">
          <mxGeometry x="30" width="186" height="30" as="geometry">
            <mxRectangle width="186" height="30" as="alternateBounds" />
          </mxGeometry>
        </mxCell>
        <mxCell id="C-vyLk0tnHw3VtMMgP7b-9" value="" style="shape=partialRectangle;collapsible=0;dropTarget=0;pointerEvents=0;fillColor=none;points=[[0,0.5],[1,0.5]];portConstraint=eastwest;top=0;left=0;right=0;bottom=0;" parent="C-vyLk0tnHw3VtMMgP7b-2" vertex="1">
          <mxGeometry y="60" width="216" height="30" as="geometry" />
        </mxCell>
        <mxCell id="C-vyLk0tnHw3VtMMgP7b-10" value="" style="shape=partialRectangle;overflow=hidden;connectable=0;fillColor=none;top=0;left=0;bottom=0;right=0;" parent="C-vyLk0tnHw3VtMMgP7b-9" vertex="1">
          <mxGeometry width="30" height="30" as="geometry">
            <mxRectangle width="30" height="30" as="alternateBounds" />
          </mxGeometry>
        </mxCell>
        <mxCell id="C-vyLk0tnHw3VtMMgP7b-11" value="Price Decimal" style="shape=partialRectangle;overflow=hidden;connectable=0;fillColor=none;top=0;left=0;bottom=0;right=0;align=left;spacingLeft=6;" parent="C-vyLk0tnHw3VtMMgP7b-9" vertex="1">
          <mxGeometry x="30" width="186" height="30" as="geometry">
            <mxRectangle width="186" height="30" as="alternateBounds" />
          </mxGeometry>
        </mxCell>
        <mxCell id="l6hNSntbj8wJOxNSr21J-51" value="" style="shape=tableRow;horizontal=0;startSize=0;swimlaneHead=0;swimlaneBody=0;fillColor=none;collapsible=0;dropTarget=0;points=[[0,0.5],[1,0.5]];portConstraint=eastwest;top=0;left=0;right=0;bottom=0;" vertex="1" parent="C-vyLk0tnHw3VtMMgP7b-2">
          <mxGeometry y="90" width="216" height="30" as="geometry" />
        </mxCell>
        <mxCell id="l6hNSntbj8wJOxNSr21J-52" value="" style="shape=partialRectangle;connectable=0;fillColor=none;top=0;left=0;bottom=0;right=0;editable=1;overflow=hidden;" vertex="1" parent="l6hNSntbj8wJOxNSr21J-51">
          <mxGeometry width="30" height="30" as="geometry">
            <mxRectangle width="30" height="30" as="alternateBounds" />
          </mxGeometry>
        </mxCell>
        <mxCell id="l6hNSntbj8wJOxNSr21J-53" value="Cost Decimal" style="shape=partialRectangle;connectable=0;fillColor=none;top=0;left=0;bottom=0;right=0;align=left;spacingLeft=6;overflow=hidden;" vertex="1" parent="l6hNSntbj8wJOxNSr21J-51">
          <mxGeometry x="30" width="186" height="30" as="geometry">
            <mxRectangle width="186" height="30" as="alternateBounds" />
          </mxGeometry>
        </mxCell>
        <mxCell id="l6hNSntbj8wJOxNSr21J-55" value="" style="shape=tableRow;horizontal=0;startSize=0;swimlaneHead=0;swimlaneBody=0;fillColor=none;collapsible=0;dropTarget=0;points=[[0,0.5],[1,0.5]];portConstraint=eastwest;top=0;left=0;right=0;bottom=0;" vertex="1" parent="C-vyLk0tnHw3VtMMgP7b-2">
          <mxGeometry y="120" width="216" height="30" as="geometry" />
        </mxCell>
        <mxCell id="l6hNSntbj8wJOxNSr21J-56" value="" style="shape=partialRectangle;connectable=0;fillColor=none;top=0;left=0;bottom=0;right=0;editable=1;overflow=hidden;" vertex="1" parent="l6hNSntbj8wJOxNSr21J-55">
          <mxGeometry width="30" height="30" as="geometry">
            <mxRectangle width="30" height="30" as="alternateBounds" />
          </mxGeometry>
        </mxCell>
        <mxCell id="l6hNSntbj8wJOxNSr21J-57" value="Shipping Decimal" style="shape=partialRectangle;connectable=0;fillColor=none;top=0;left=0;bottom=0;right=0;align=left;spacingLeft=6;overflow=hidden;" vertex="1" parent="l6hNSntbj8wJOxNSr21J-55">
          <mxGeometry x="30" width="186" height="30" as="geometry">
            <mxRectangle width="186" height="30" as="alternateBounds" />
          </mxGeometry>
        </mxCell>
        <mxCell id="l6hNSntbj8wJOxNSr21J-66" value="" style="shape=tableRow;horizontal=0;startSize=0;swimlaneHead=0;swimlaneBody=0;fillColor=none;collapsible=0;dropTarget=0;points=[[0,0.5],[1,0.5]];portConstraint=eastwest;top=0;left=0;right=0;bottom=0;" vertex="1" parent="C-vyLk0tnHw3VtMMgP7b-2">
          <mxGeometry y="150" width="216" height="30" as="geometry" />
        </mxCell>
        <mxCell id="l6hNSntbj8wJOxNSr21J-67" value="" style="shape=partialRectangle;connectable=0;fillColor=none;top=0;left=0;bottom=0;right=0;editable=1;overflow=hidden;" vertex="1" parent="l6hNSntbj8wJOxNSr21J-66">
          <mxGeometry width="30" height="30" as="geometry">
            <mxRectangle width="30" height="30" as="alternateBounds" />
          </mxGeometry>
        </mxCell>
        <mxCell id="l6hNSntbj8wJOxNSr21J-68" value="Quantity INT" style="shape=partialRectangle;connectable=0;fillColor=none;top=0;left=0;bottom=0;right=0;align=left;spacingLeft=6;overflow=hidden;" vertex="1" parent="l6hNSntbj8wJOxNSr21J-66">
          <mxGeometry x="30" width="186" height="30" as="geometry">
            <mxRectangle width="186" height="30" as="alternateBounds" />
          </mxGeometry>
        </mxCell>
        <mxCell id="l6hNSntbj8wJOxNSr21J-75" value="" style="shape=tableRow;horizontal=0;startSize=0;swimlaneHead=0;swimlaneBody=0;fillColor=none;collapsible=0;dropTarget=0;points=[[0,0.5],[1,0.5]];portConstraint=eastwest;top=0;left=0;right=0;bottom=0;" vertex="1" parent="C-vyLk0tnHw3VtMMgP7b-2">
          <mxGeometry y="180" width="216" height="30" as="geometry" />
        </mxCell>
        <mxCell id="l6hNSntbj8wJOxNSr21J-76" value="FK" style="shape=partialRectangle;connectable=0;fillColor=none;top=0;left=0;bottom=0;right=0;fontStyle=0;overflow=hidden;whiteSpace=wrap;html=1;" vertex="1" parent="l6hNSntbj8wJOxNSr21J-75">
          <mxGeometry width="30" height="30" as="geometry">
            <mxRectangle width="30" height="30" as="alternateBounds" />
          </mxGeometry>
        </mxCell>
        <mxCell id="l6hNSntbj8wJOxNSr21J-77" value="CustomerKey INT" style="shape=partialRectangle;connectable=0;fillColor=none;top=0;left=0;bottom=0;right=0;align=left;spacingLeft=6;fontStyle=0;overflow=hidden;whiteSpace=wrap;html=1;" vertex="1" parent="l6hNSntbj8wJOxNSr21J-75">
          <mxGeometry x="30" width="186" height="30" as="geometry">
            <mxRectangle width="186" height="30" as="alternateBounds" />
          </mxGeometry>
        </mxCell>
        <mxCell id="l6hNSntbj8wJOxNSr21J-79" value="" style="shape=tableRow;horizontal=0;startSize=0;swimlaneHead=0;swimlaneBody=0;fillColor=none;collapsible=0;dropTarget=0;points=[[0,0.5],[1,0.5]];portConstraint=eastwest;top=0;left=0;right=0;bottom=0;" vertex="1" parent="C-vyLk0tnHw3VtMMgP7b-2">
          <mxGeometry y="210" width="216" height="30" as="geometry" />
        </mxCell>
        <mxCell id="l6hNSntbj8wJOxNSr21J-80" value="FK" style="shape=partialRectangle;connectable=0;fillColor=none;top=0;left=0;bottom=0;right=0;fontStyle=0;overflow=hidden;whiteSpace=wrap;html=1;" vertex="1" parent="l6hNSntbj8wJOxNSr21J-79">
          <mxGeometry width="30" height="30" as="geometry">
            <mxRectangle width="30" height="30" as="alternateBounds" />
          </mxGeometry>
        </mxCell>
        <mxCell id="l6hNSntbj8wJOxNSr21J-81" value="ProductKey INT" style="shape=partialRectangle;connectable=0;fillColor=none;top=0;left=0;bottom=0;right=0;align=left;spacingLeft=6;fontStyle=0;overflow=hidden;whiteSpace=wrap;html=1;" vertex="1" parent="l6hNSntbj8wJOxNSr21J-79">
          <mxGeometry x="30" width="186" height="30" as="geometry">
            <mxRectangle width="186" height="30" as="alternateBounds" />
          </mxGeometry>
        </mxCell>
        <mxCell id="l6hNSntbj8wJOxNSr21J-83" value="" style="shape=tableRow;horizontal=0;startSize=0;swimlaneHead=0;swimlaneBody=0;fillColor=none;collapsible=0;dropTarget=0;points=[[0,0.5],[1,0.5]];portConstraint=eastwest;top=0;left=0;right=0;bottom=0;" vertex="1" parent="C-vyLk0tnHw3VtMMgP7b-2">
          <mxGeometry y="240" width="216" height="30" as="geometry" />
        </mxCell>
        <mxCell id="l6hNSntbj8wJOxNSr21J-84" value="FK" style="shape=partialRectangle;connectable=0;fillColor=none;top=0;left=0;bottom=0;right=0;fontStyle=0;overflow=hidden;whiteSpace=wrap;html=1;" vertex="1" parent="l6hNSntbj8wJOxNSr21J-83">
          <mxGeometry width="30" height="30" as="geometry">
            <mxRectangle width="30" height="30" as="alternateBounds" />
          </mxGeometry>
        </mxCell>
        <mxCell id="l6hNSntbj8wJOxNSr21J-85" value="LocationKey INT" style="shape=partialRectangle;connectable=0;fillColor=none;top=0;left=0;bottom=0;right=0;align=left;spacingLeft=6;fontStyle=0;overflow=hidden;whiteSpace=wrap;html=1;" vertex="1" parent="l6hNSntbj8wJOxNSr21J-83">
          <mxGeometry x="30" width="186" height="30" as="geometry">
            <mxRectangle width="186" height="30" as="alternateBounds" />
          </mxGeometry>
        </mxCell>
        <mxCell id="l6hNSntbj8wJOxNSr21J-87" value="" style="shape=tableRow;horizontal=0;startSize=0;swimlaneHead=0;swimlaneBody=0;fillColor=none;collapsible=0;dropTarget=0;points=[[0,0.5],[1,0.5]];portConstraint=eastwest;top=0;left=0;right=0;bottom=0;" vertex="1" parent="C-vyLk0tnHw3VtMMgP7b-2">
          <mxGeometry y="270" width="216" height="30" as="geometry" />
        </mxCell>
        <mxCell id="l6hNSntbj8wJOxNSr21J-88" value="FK" style="shape=partialRectangle;connectable=0;fillColor=none;top=0;left=0;bottom=0;right=0;fontStyle=0;overflow=hidden;whiteSpace=wrap;html=1;" vertex="1" parent="l6hNSntbj8wJOxNSr21J-87">
          <mxGeometry width="30" height="30" as="geometry">
            <mxRectangle width="30" height="30" as="alternateBounds" />
          </mxGeometry>
        </mxCell>
        <mxCell id="l6hNSntbj8wJOxNSr21J-89" value="TimeKey INT" style="shape=partialRectangle;connectable=0;fillColor=none;top=0;left=0;bottom=0;right=0;align=left;spacingLeft=6;fontStyle=0;overflow=hidden;whiteSpace=wrap;html=1;" vertex="1" parent="l6hNSntbj8wJOxNSr21J-87">
          <mxGeometry x="30" width="186" height="30" as="geometry">
            <mxRectangle width="186" height="30" as="alternateBounds" />
          </mxGeometry>
        </mxCell>
        <mxCell id="l6hNSntbj8wJOxNSr21J-130" value="" style="edgeStyle=elbowEdgeStyle;elbow=horizontal;endArrow=classic;html=1;curved=0;rounded=0;endSize=8;startSize=8;exitX=0;exitY=0.5;exitDx=0;exitDy=0;entryX=1;entryY=0.5;entryDx=0;entryDy=0;" edge="1" parent="1" source="l6hNSntbj8wJOxNSr21J-83" target="l6hNSntbj8wJOxNSr21J-28">
          <mxGeometry width="50" height="50" relative="1" as="geometry">
            <mxPoint x="252" y="480" as="sourcePoint" />
            <mxPoint x="312" y="120" as="targetPoint" />
            <Array as="points">
              <mxPoint x="252" y="288" />
            </Array>
          </mxGeometry>
        </mxCell>
        <mxCell id="l6hNSntbj8wJOxNSr21J-131" value="" style="edgeStyle=elbowEdgeStyle;elbow=horizontal;endArrow=classic;html=1;curved=0;rounded=0;endSize=8;startSize=8;entryX=1;entryY=0.5;entryDx=0;entryDy=0;exitX=0;exitY=0.5;exitDx=0;exitDy=0;" edge="1" parent="1" source="l6hNSntbj8wJOxNSr21J-87" target="l6hNSntbj8wJOxNSr21J-2">
          <mxGeometry width="50" height="50" relative="1" as="geometry">
            <mxPoint x="216" y="516" as="sourcePoint" />
            <mxPoint x="410" y="647" as="targetPoint" />
            <Array as="points">
              <mxPoint x="276" y="576" />
            </Array>
          </mxGeometry>
        </mxCell>
        <mxCell id="l6hNSntbj8wJOxNSr21J-132" value="" style="edgeStyle=elbowEdgeStyle;elbow=horizontal;endArrow=classic;html=1;curved=0;rounded=0;endSize=8;startSize=8;exitX=1.009;exitY=0.133;exitDx=0;exitDy=0;exitPerimeter=0;entryX=0;entryY=0.5;entryDx=0;entryDy=0;" edge="1" parent="1">
          <mxGeometry width="50" height="50" relative="1" as="geometry">
            <mxPoint x="516.0039999999999" y="381.99" as="sourcePoint" />
            <mxPoint x="564.06" y="81" as="targetPoint" />
            <Array as="points">
              <mxPoint x="538.06" y="240" />
            </Array>
          </mxGeometry>
        </mxCell>
        <mxCell id="l6hNSntbj8wJOxNSr21J-133" value="" style="edgeStyle=elbowEdgeStyle;elbow=horizontal;endArrow=classic;html=1;curved=0;rounded=0;endSize=8;startSize=8;exitX=1.019;exitY=-0.033;exitDx=0;exitDy=0;exitPerimeter=0;entryX=0.009;entryY=0.6;entryDx=0;entryDy=0;entryPerimeter=0;" edge="1" parent="1" target="l6hNSntbj8wJOxNSr21J-15">
          <mxGeometry width="50" height="50" relative="1" as="geometry">
            <mxPoint x="516.004" y="407.01" as="sourcePoint" />
            <mxPoint x="581.9" y="621" as="targetPoint" />
            <Array as="points">
              <mxPoint x="535.9" y="468" />
            </Array>
          </mxGeometry>
        </mxCell>
        <mxCell id="l6hNSntbj8wJOxNSr21J-134" value="Category" style="shape=table;startSize=30;container=1;collapsible=1;childLayout=tableLayout;fixedRows=1;rowLines=0;fontStyle=1;align=center;resizeLast=1;html=1;" vertex="1" parent="1">
          <mxGeometry x="326" y="672" width="240" height="156" as="geometry" />
        </mxCell>
        <mxCell id="l6hNSntbj8wJOxNSr21J-135" value="" style="shape=tableRow;horizontal=0;startSize=0;swimlaneHead=0;swimlaneBody=0;fillColor=none;collapsible=0;dropTarget=0;points=[[0,0.5],[1,0.5]];portConstraint=eastwest;top=0;left=0;right=0;bottom=1;" vertex="1" parent="l6hNSntbj8wJOxNSr21J-134">
          <mxGeometry y="30" width="240" height="30" as="geometry" />
        </mxCell>
        <mxCell id="l6hNSntbj8wJOxNSr21J-136" value="PK" style="shape=partialRectangle;connectable=0;fillColor=none;top=0;left=0;bottom=0;right=0;fontStyle=1;overflow=hidden;whiteSpace=wrap;html=1;" vertex="1" parent="l6hNSntbj8wJOxNSr21J-135">
          <mxGeometry width="30" height="30" as="geometry">
            <mxRectangle width="30" height="30" as="alternateBounds" />
          </mxGeometry>
        </mxCell>
        <mxCell id="l6hNSntbj8wJOxNSr21J-137" value="CategoryKey INT" style="shape=partialRectangle;connectable=0;fillColor=none;top=0;left=0;bottom=0;right=0;align=left;spacingLeft=6;fontStyle=5;overflow=hidden;whiteSpace=wrap;html=1;" vertex="1" parent="l6hNSntbj8wJOxNSr21J-135">
          <mxGeometry x="30" width="210" height="30" as="geometry">
            <mxRectangle width="210" height="30" as="alternateBounds" />
          </mxGeometry>
        </mxCell>
        <mxCell id="l6hNSntbj8wJOxNSr21J-138" value="" style="shape=tableRow;horizontal=0;startSize=0;swimlaneHead=0;swimlaneBody=0;fillColor=none;collapsible=0;dropTarget=0;points=[[0,0.5],[1,0.5]];portConstraint=eastwest;top=0;left=0;right=0;bottom=0;" vertex="1" parent="l6hNSntbj8wJOxNSr21J-134">
          <mxGeometry y="60" width="240" height="30" as="geometry" />
        </mxCell>
        <mxCell id="l6hNSntbj8wJOxNSr21J-139" value="" style="shape=partialRectangle;connectable=0;fillColor=none;top=0;left=0;bottom=0;right=0;editable=1;overflow=hidden;whiteSpace=wrap;html=1;" vertex="1" parent="l6hNSntbj8wJOxNSr21J-138">
          <mxGeometry width="30" height="30" as="geometry">
            <mxRectangle width="30" height="30" as="alternateBounds" />
          </mxGeometry>
        </mxCell>
        <mxCell id="l6hNSntbj8wJOxNSr21J-140" value="CategoryName VARCHAR(255)" style="shape=partialRectangle;connectable=0;fillColor=none;top=0;left=0;bottom=0;right=0;align=left;spacingLeft=6;overflow=hidden;whiteSpace=wrap;html=1;" vertex="1" parent="l6hNSntbj8wJOxNSr21J-138">
          <mxGeometry x="30" width="210" height="30" as="geometry">
            <mxRectangle width="210" height="30" as="alternateBounds" />
          </mxGeometry>
        </mxCell>
        <mxCell id="l6hNSntbj8wJOxNSr21J-141" value="" style="shape=tableRow;horizontal=0;startSize=0;swimlaneHead=0;swimlaneBody=0;fillColor=none;collapsible=0;dropTarget=0;points=[[0,0.5],[1,0.5]];portConstraint=eastwest;top=0;left=0;right=0;bottom=0;" vertex="1" parent="l6hNSntbj8wJOxNSr21J-134">
          <mxGeometry y="90" width="240" height="30" as="geometry" />
        </mxCell>
        <mxCell id="l6hNSntbj8wJOxNSr21J-142" value="" style="shape=partialRectangle;connectable=0;fillColor=none;top=0;left=0;bottom=0;right=0;editable=1;overflow=hidden;whiteSpace=wrap;html=1;" vertex="1" parent="l6hNSntbj8wJOxNSr21J-141">
          <mxGeometry width="30" height="30" as="geometry">
            <mxRectangle width="30" height="30" as="alternateBounds" />
          </mxGeometry>
        </mxCell>
        <mxCell id="l6hNSntbj8wJOxNSr21J-143" value="SubcategoryKey INT" style="shape=partialRectangle;connectable=0;fillColor=none;top=0;left=0;bottom=0;right=0;align=left;spacingLeft=6;overflow=hidden;whiteSpace=wrap;html=1;" vertex="1" parent="l6hNSntbj8wJOxNSr21J-141">
          <mxGeometry x="30" width="210" height="30" as="geometry">
            <mxRectangle width="210" height="30" as="alternateBounds" />
          </mxGeometry>
        </mxCell>
        <mxCell id="l6hNSntbj8wJOxNSr21J-144" value="" style="shape=tableRow;horizontal=0;startSize=0;swimlaneHead=0;swimlaneBody=0;fillColor=none;collapsible=0;dropTarget=0;points=[[0,0.5],[1,0.5]];portConstraint=eastwest;top=0;left=0;right=0;bottom=0;" vertex="1" parent="l6hNSntbj8wJOxNSr21J-134">
          <mxGeometry y="120" width="240" height="30" as="geometry" />
        </mxCell>
        <mxCell id="l6hNSntbj8wJOxNSr21J-145" value="" style="shape=partialRectangle;connectable=0;fillColor=none;top=0;left=0;bottom=0;right=0;editable=1;overflow=hidden;whiteSpace=wrap;html=1;" vertex="1" parent="l6hNSntbj8wJOxNSr21J-144">
          <mxGeometry width="30" height="30" as="geometry">
            <mxRectangle width="30" height="30" as="alternateBounds" />
          </mxGeometry>
        </mxCell>
        <mxCell id="l6hNSntbj8wJOxNSr21J-146" value="Description VARCHAR(255)" style="shape=partialRectangle;connectable=0;fillColor=none;top=0;left=0;bottom=0;right=0;align=left;spacingLeft=6;overflow=hidden;whiteSpace=wrap;html=1;" vertex="1" parent="l6hNSntbj8wJOxNSr21J-144">
          <mxGeometry x="30" width="210" height="30" as="geometry">
            <mxRectangle width="210" height="30" as="alternateBounds" />
          </mxGeometry>
        </mxCell>
        <mxCell id="l6hNSntbj8wJOxNSr21J-147" value="Subcategory" style="shape=table;startSize=30;container=1;collapsible=1;childLayout=tableLayout;fixedRows=1;rowLines=0;fontStyle=1;align=center;resizeLast=1;html=1;" vertex="1" parent="1">
          <mxGeometry x="326" y="888" width="240" height="120" as="geometry" />
        </mxCell>
        <mxCell id="l6hNSntbj8wJOxNSr21J-148" value="" style="shape=tableRow;horizontal=0;startSize=0;swimlaneHead=0;swimlaneBody=0;fillColor=none;collapsible=0;dropTarget=0;points=[[0,0.5],[1,0.5]];portConstraint=eastwest;top=0;left=0;right=0;bottom=1;" vertex="1" parent="l6hNSntbj8wJOxNSr21J-147">
          <mxGeometry y="30" width="240" height="30" as="geometry" />
        </mxCell>
        <mxCell id="l6hNSntbj8wJOxNSr21J-149" value="PK" style="shape=partialRectangle;connectable=0;fillColor=none;top=0;left=0;bottom=0;right=0;fontStyle=1;overflow=hidden;whiteSpace=wrap;html=1;" vertex="1" parent="l6hNSntbj8wJOxNSr21J-148">
          <mxGeometry width="36" height="30" as="geometry">
            <mxRectangle width="36" height="30" as="alternateBounds" />
          </mxGeometry>
        </mxCell>
        <mxCell id="l6hNSntbj8wJOxNSr21J-150" value="SubcategoryKey INT" style="shape=partialRectangle;connectable=0;fillColor=none;top=0;left=0;bottom=0;right=0;align=left;spacingLeft=6;fontStyle=5;overflow=hidden;whiteSpace=wrap;html=1;" vertex="1" parent="l6hNSntbj8wJOxNSr21J-148">
          <mxGeometry x="36" width="204" height="30" as="geometry">
            <mxRectangle width="204" height="30" as="alternateBounds" />
          </mxGeometry>
        </mxCell>
        <mxCell id="l6hNSntbj8wJOxNSr21J-151" value="" style="shape=tableRow;horizontal=0;startSize=0;swimlaneHead=0;swimlaneBody=0;fillColor=none;collapsible=0;dropTarget=0;points=[[0,0.5],[1,0.5]];portConstraint=eastwest;top=0;left=0;right=0;bottom=0;" vertex="1" parent="l6hNSntbj8wJOxNSr21J-147">
          <mxGeometry y="60" width="240" height="30" as="geometry" />
        </mxCell>
        <mxCell id="l6hNSntbj8wJOxNSr21J-152" value="" style="shape=partialRectangle;connectable=0;fillColor=none;top=0;left=0;bottom=0;right=0;editable=1;overflow=hidden;whiteSpace=wrap;html=1;" vertex="1" parent="l6hNSntbj8wJOxNSr21J-151">
          <mxGeometry width="36" height="30" as="geometry">
            <mxRectangle width="36" height="30" as="alternateBounds" />
          </mxGeometry>
        </mxCell>
        <mxCell id="l6hNSntbj8wJOxNSr21J-153" value="SubcategoryName VARCHAR(255)" style="shape=partialRectangle;connectable=0;fillColor=none;top=0;left=0;bottom=0;right=0;align=left;spacingLeft=6;overflow=hidden;whiteSpace=wrap;html=1;" vertex="1" parent="l6hNSntbj8wJOxNSr21J-151">
          <mxGeometry x="36" width="204" height="30" as="geometry">
            <mxRectangle width="204" height="30" as="alternateBounds" />
          </mxGeometry>
        </mxCell>
        <mxCell id="l6hNSntbj8wJOxNSr21J-154" value="" style="shape=tableRow;horizontal=0;startSize=0;swimlaneHead=0;swimlaneBody=0;fillColor=none;collapsible=0;dropTarget=0;points=[[0,0.5],[1,0.5]];portConstraint=eastwest;top=0;left=0;right=0;bottom=0;" vertex="1" parent="l6hNSntbj8wJOxNSr21J-147">
          <mxGeometry y="90" width="240" height="30" as="geometry" />
        </mxCell>
        <mxCell id="l6hNSntbj8wJOxNSr21J-155" value="" style="shape=partialRectangle;connectable=0;fillColor=none;top=0;left=0;bottom=0;right=0;editable=1;overflow=hidden;whiteSpace=wrap;html=1;" vertex="1" parent="l6hNSntbj8wJOxNSr21J-154">
          <mxGeometry width="36" height="30" as="geometry">
            <mxRectangle width="36" height="30" as="alternateBounds" />
          </mxGeometry>
        </mxCell>
        <mxCell id="l6hNSntbj8wJOxNSr21J-156" value="Description VARCHAR(255)" style="shape=partialRectangle;connectable=0;fillColor=none;top=0;left=0;bottom=0;right=0;align=left;spacingLeft=6;overflow=hidden;whiteSpace=wrap;html=1;" vertex="1" parent="l6hNSntbj8wJOxNSr21J-154">
          <mxGeometry x="36" width="204" height="30" as="geometry">
            <mxRectangle width="204" height="30" as="alternateBounds" />
          </mxGeometry>
        </mxCell>
        <mxCell id="l6hNSntbj8wJOxNSr21J-160" value="" style="edgeStyle=elbowEdgeStyle;elbow=horizontal;endArrow=classic;html=1;curved=0;rounded=0;endSize=8;startSize=8;entryX=0;entryY=0.5;entryDx=0;entryDy=0;exitX=0;exitY=0.5;exitDx=0;exitDy=0;" edge="1" parent="1" source="l6hNSntbj8wJOxNSr21J-141" target="l6hNSntbj8wJOxNSr21J-148">
          <mxGeometry width="50" height="50" relative="1" as="geometry">
            <mxPoint x="108" y="1032" as="sourcePoint" />
            <mxPoint x="240" y="852" as="targetPoint" />
            <Array as="points">
              <mxPoint x="252" y="864" />
            </Array>
          </mxGeometry>
        </mxCell>
        <mxCell id="l6hNSntbj8wJOxNSr21J-161" value="" style="edgeStyle=elbowEdgeStyle;elbow=horizontal;endArrow=classic;html=1;curved=0;rounded=0;endSize=8;startSize=8;entryX=1;entryY=0.5;entryDx=0;entryDy=0;exitX=0;exitY=0.833;exitDx=0;exitDy=0;exitPerimeter=0;" edge="1" parent="1" source="l6hNSntbj8wJOxNSr21J-18" target="l6hNSntbj8wJOxNSr21J-135">
          <mxGeometry width="50" height="50" relative="1" as="geometry">
            <mxPoint x="576" y="660" as="sourcePoint" />
            <mxPoint x="446" y="660" as="targetPoint" />
            <Array as="points">
              <mxPoint x="564" y="696" />
            </Array>
          </mxGeometry>
        </mxCell>
        <mxCell id="l6hNSntbj8wJOxNSr21J-163" value="SNOWFLAKE DIAGRAM" style="shape=table;startSize=30;container=1;collapsible=0;childLayout=tableLayout;" vertex="1" parent="1">
          <mxGeometry x="132" y="-72" width="540" height="60" as="geometry" />
        </mxCell>
        <mxCell id="l6hNSntbj8wJOxNSr21J-164" value="" style="shape=tableRow;horizontal=0;startSize=0;swimlaneHead=0;swimlaneBody=0;strokeColor=inherit;top=0;left=0;bottom=0;right=0;collapsible=0;dropTarget=0;fillColor=none;points=[[0,0.5],[1,0.5]];portConstraint=eastwest;" vertex="1" parent="l6hNSntbj8wJOxNSr21J-163">
          <mxGeometry y="30" width="540" height="15" as="geometry" />
        </mxCell>
        <mxCell id="l6hNSntbj8wJOxNSr21J-165" value="" style="shape=partialRectangle;html=1;whiteSpace=wrap;connectable=0;strokeColor=inherit;overflow=hidden;fillColor=none;top=0;left=0;bottom=0;right=0;pointerEvents=1;" vertex="1" parent="l6hNSntbj8wJOxNSr21J-164">
          <mxGeometry width="60" height="15" as="geometry">
            <mxRectangle width="60" height="15" as="alternateBounds" />
          </mxGeometry>
        </mxCell>
        <mxCell id="l6hNSntbj8wJOxNSr21J-166" value="" style="shape=partialRectangle;html=1;whiteSpace=wrap;connectable=0;strokeColor=inherit;overflow=hidden;fillColor=none;top=0;left=0;bottom=0;right=0;pointerEvents=1;" vertex="1" parent="l6hNSntbj8wJOxNSr21J-164">
          <mxGeometry x="60" width="60" height="15" as="geometry">
            <mxRectangle width="60" height="15" as="alternateBounds" />
          </mxGeometry>
        </mxCell>
        <mxCell id="l6hNSntbj8wJOxNSr21J-167" value="" style="shape=partialRectangle;html=1;whiteSpace=wrap;connectable=0;strokeColor=inherit;overflow=hidden;fillColor=none;top=0;left=0;bottom=0;right=0;pointerEvents=1;" vertex="1" parent="l6hNSntbj8wJOxNSr21J-164">
          <mxGeometry x="120" width="60" height="15" as="geometry">
            <mxRectangle width="60" height="15" as="alternateBounds" />
          </mxGeometry>
        </mxCell>
        <mxCell id="l6hNSntbj8wJOxNSr21J-168" value="" style="shape=partialRectangle;html=1;whiteSpace=wrap;connectable=0;strokeColor=inherit;overflow=hidden;fillColor=none;top=0;left=0;bottom=0;right=0;pointerEvents=1;" vertex="1" parent="l6hNSntbj8wJOxNSr21J-164">
          <mxGeometry x="180" width="60" height="15" as="geometry">
            <mxRectangle width="60" height="15" as="alternateBounds" />
          </mxGeometry>
        </mxCell>
        <mxCell id="l6hNSntbj8wJOxNSr21J-169" value="" style="shape=partialRectangle;html=1;whiteSpace=wrap;connectable=0;strokeColor=inherit;overflow=hidden;fillColor=none;top=0;left=0;bottom=0;right=0;pointerEvents=1;" vertex="1" parent="l6hNSntbj8wJOxNSr21J-164">
          <mxGeometry x="240" width="60" height="15" as="geometry">
            <mxRectangle width="60" height="15" as="alternateBounds" />
          </mxGeometry>
        </mxCell>
        <mxCell id="l6hNSntbj8wJOxNSr21J-170" value="" style="shape=partialRectangle;html=1;whiteSpace=wrap;connectable=0;strokeColor=inherit;overflow=hidden;fillColor=none;top=0;left=0;bottom=0;right=0;pointerEvents=1;" vertex="1" parent="l6hNSntbj8wJOxNSr21J-164">
          <mxGeometry x="300" width="60" height="15" as="geometry">
            <mxRectangle width="60" height="15" as="alternateBounds" />
          </mxGeometry>
        </mxCell>
        <mxCell id="l6hNSntbj8wJOxNSr21J-171" value="" style="shape=partialRectangle;html=1;whiteSpace=wrap;connectable=0;strokeColor=inherit;overflow=hidden;fillColor=none;top=0;left=0;bottom=0;right=0;pointerEvents=1;" vertex="1" parent="l6hNSntbj8wJOxNSr21J-164">
          <mxGeometry x="360" width="60" height="15" as="geometry">
            <mxRectangle width="60" height="15" as="alternateBounds" />
          </mxGeometry>
        </mxCell>
        <mxCell id="l6hNSntbj8wJOxNSr21J-172" value="" style="shape=partialRectangle;html=1;whiteSpace=wrap;connectable=0;strokeColor=inherit;overflow=hidden;fillColor=none;top=0;left=0;bottom=0;right=0;pointerEvents=1;" vertex="1" parent="l6hNSntbj8wJOxNSr21J-164">
          <mxGeometry x="420" width="60" height="15" as="geometry">
            <mxRectangle width="60" height="15" as="alternateBounds" />
          </mxGeometry>
        </mxCell>
        <mxCell id="l6hNSntbj8wJOxNSr21J-173" value="" style="shape=partialRectangle;html=1;whiteSpace=wrap;connectable=0;strokeColor=inherit;overflow=hidden;fillColor=none;top=0;left=0;bottom=0;right=0;pointerEvents=1;" vertex="1" parent="l6hNSntbj8wJOxNSr21J-164">
          <mxGeometry x="480" width="60" height="15" as="geometry">
            <mxRectangle width="60" height="15" as="alternateBounds" />
          </mxGeometry>
        </mxCell>
        <mxCell id="l6hNSntbj8wJOxNSr21J-174" value="" style="shape=tableRow;horizontal=0;startSize=0;swimlaneHead=0;swimlaneBody=0;strokeColor=inherit;top=0;left=0;bottom=0;right=0;collapsible=0;dropTarget=0;fillColor=none;points=[[0,0.5],[1,0.5]];portConstraint=eastwest;" vertex="1" parent="l6hNSntbj8wJOxNSr21J-163">
          <mxGeometry y="45" width="540" height="15" as="geometry" />
        </mxCell>
        <mxCell id="l6hNSntbj8wJOxNSr21J-175" value="" style="shape=partialRectangle;html=1;whiteSpace=wrap;connectable=0;strokeColor=inherit;overflow=hidden;fillColor=none;top=0;left=0;bottom=0;right=0;pointerEvents=1;" vertex="1" parent="l6hNSntbj8wJOxNSr21J-174">
          <mxGeometry width="60" height="15" as="geometry">
            <mxRectangle width="60" height="15" as="alternateBounds" />
          </mxGeometry>
        </mxCell>
        <mxCell id="l6hNSntbj8wJOxNSr21J-176" value="" style="shape=partialRectangle;html=1;whiteSpace=wrap;connectable=0;strokeColor=inherit;overflow=hidden;fillColor=none;top=0;left=0;bottom=0;right=0;pointerEvents=1;" vertex="1" parent="l6hNSntbj8wJOxNSr21J-174">
          <mxGeometry x="60" width="60" height="15" as="geometry">
            <mxRectangle width="60" height="15" as="alternateBounds" />
          </mxGeometry>
        </mxCell>
        <mxCell id="l6hNSntbj8wJOxNSr21J-177" value="" style="shape=partialRectangle;html=1;whiteSpace=wrap;connectable=0;strokeColor=inherit;overflow=hidden;fillColor=none;top=0;left=0;bottom=0;right=0;pointerEvents=1;" vertex="1" parent="l6hNSntbj8wJOxNSr21J-174">
          <mxGeometry x="120" width="60" height="15" as="geometry">
            <mxRectangle width="60" height="15" as="alternateBounds" />
          </mxGeometry>
        </mxCell>
        <mxCell id="l6hNSntbj8wJOxNSr21J-178" value="" style="shape=partialRectangle;html=1;whiteSpace=wrap;connectable=0;strokeColor=inherit;overflow=hidden;fillColor=none;top=0;left=0;bottom=0;right=0;pointerEvents=1;" vertex="1" parent="l6hNSntbj8wJOxNSr21J-174">
          <mxGeometry x="180" width="60" height="15" as="geometry">
            <mxRectangle width="60" height="15" as="alternateBounds" />
          </mxGeometry>
        </mxCell>
        <mxCell id="l6hNSntbj8wJOxNSr21J-179" value="" style="shape=partialRectangle;html=1;whiteSpace=wrap;connectable=0;strokeColor=inherit;overflow=hidden;fillColor=none;top=0;left=0;bottom=0;right=0;pointerEvents=1;" vertex="1" parent="l6hNSntbj8wJOxNSr21J-174">
          <mxGeometry x="240" width="60" height="15" as="geometry">
            <mxRectangle width="60" height="15" as="alternateBounds" />
          </mxGeometry>
        </mxCell>
        <mxCell id="l6hNSntbj8wJOxNSr21J-180" value="" style="shape=partialRectangle;html=1;whiteSpace=wrap;connectable=0;strokeColor=inherit;overflow=hidden;fillColor=none;top=0;left=0;bottom=0;right=0;pointerEvents=1;" vertex="1" parent="l6hNSntbj8wJOxNSr21J-174">
          <mxGeometry x="300" width="60" height="15" as="geometry">
            <mxRectangle width="60" height="15" as="alternateBounds" />
          </mxGeometry>
        </mxCell>
        <mxCell id="l6hNSntbj8wJOxNSr21J-181" value="" style="shape=partialRectangle;html=1;whiteSpace=wrap;connectable=0;strokeColor=inherit;overflow=hidden;fillColor=none;top=0;left=0;bottom=0;right=0;pointerEvents=1;" vertex="1" parent="l6hNSntbj8wJOxNSr21J-174">
          <mxGeometry x="360" width="60" height="15" as="geometry">
            <mxRectangle width="60" height="15" as="alternateBounds" />
          </mxGeometry>
        </mxCell>
        <mxCell id="l6hNSntbj8wJOxNSr21J-182" value="" style="shape=partialRectangle;html=1;whiteSpace=wrap;connectable=0;strokeColor=inherit;overflow=hidden;fillColor=none;top=0;left=0;bottom=0;right=0;pointerEvents=1;" vertex="1" parent="l6hNSntbj8wJOxNSr21J-174">
          <mxGeometry x="420" width="60" height="15" as="geometry">
            <mxRectangle width="60" height="15" as="alternateBounds" />
          </mxGeometry>
        </mxCell>
        <mxCell id="l6hNSntbj8wJOxNSr21J-183" value="" style="shape=partialRectangle;html=1;whiteSpace=wrap;connectable=0;strokeColor=inherit;overflow=hidden;fillColor=none;top=0;left=0;bottom=0;right=0;pointerEvents=1;" vertex="1" parent="l6hNSntbj8wJOxNSr21J-174">
          <mxGeometry x="480" width="60" height="15" as="geometry">
            <mxRectangle width="60" height="15" as="alternateBounds" />
          </mxGeometry>
        </mxCell>
        <mxCell id="l6hNSntbj8wJOxNSr21J-184" value="STAR DIAGRAM " style="shape=table;startSize=30;container=1;collapsible=0;childLayout=tableLayout;" vertex="1" parent="1">
          <mxGeometry x="245" y="-1092" width="367" height="48" as="geometry" />
        </mxCell>
        <mxCell id="l6hNSntbj8wJOxNSr21J-185" value="" style="shape=tableRow;horizontal=0;startSize=0;swimlaneHead=0;swimlaneBody=0;strokeColor=inherit;top=0;left=0;bottom=0;right=0;collapsible=0;dropTarget=0;fillColor=none;points=[[0,0.5],[1,0.5]];portConstraint=eastwest;" vertex="1" parent="l6hNSntbj8wJOxNSr21J-184">
          <mxGeometry y="30" width="367" height="9" as="geometry" />
        </mxCell>
        <mxCell id="l6hNSntbj8wJOxNSr21J-186" value="" style="shape=partialRectangle;html=1;whiteSpace=wrap;connectable=0;strokeColor=inherit;overflow=hidden;fillColor=none;top=0;left=0;bottom=0;right=0;pointerEvents=1;" vertex="1" parent="l6hNSntbj8wJOxNSr21J-185">
          <mxGeometry width="61" height="9" as="geometry">
            <mxRectangle width="61" height="9" as="alternateBounds" />
          </mxGeometry>
        </mxCell>
        <mxCell id="l6hNSntbj8wJOxNSr21J-187" value="" style="shape=partialRectangle;html=1;whiteSpace=wrap;connectable=0;strokeColor=inherit;overflow=hidden;fillColor=none;top=0;left=0;bottom=0;right=0;pointerEvents=1;" vertex="1" parent="l6hNSntbj8wJOxNSr21J-185">
          <mxGeometry x="61" width="61" height="9" as="geometry">
            <mxRectangle width="61" height="9" as="alternateBounds" />
          </mxGeometry>
        </mxCell>
        <mxCell id="l6hNSntbj8wJOxNSr21J-188" value="" style="shape=partialRectangle;html=1;whiteSpace=wrap;connectable=0;strokeColor=inherit;overflow=hidden;fillColor=none;top=0;left=0;bottom=0;right=0;pointerEvents=1;" vertex="1" parent="l6hNSntbj8wJOxNSr21J-185">
          <mxGeometry x="122" width="62" height="9" as="geometry">
            <mxRectangle width="62" height="9" as="alternateBounds" />
          </mxGeometry>
        </mxCell>
        <mxCell id="l6hNSntbj8wJOxNSr21J-189" value="" style="shape=partialRectangle;html=1;whiteSpace=wrap;connectable=0;strokeColor=inherit;overflow=hidden;fillColor=none;top=0;left=0;bottom=0;right=0;pointerEvents=1;" vertex="1" parent="l6hNSntbj8wJOxNSr21J-185">
          <mxGeometry x="184" width="61" height="9" as="geometry">
            <mxRectangle width="61" height="9" as="alternateBounds" />
          </mxGeometry>
        </mxCell>
        <mxCell id="l6hNSntbj8wJOxNSr21J-190" value="" style="shape=partialRectangle;html=1;whiteSpace=wrap;connectable=0;strokeColor=inherit;overflow=hidden;fillColor=none;top=0;left=0;bottom=0;right=0;pointerEvents=1;" vertex="1" parent="l6hNSntbj8wJOxNSr21J-185">
          <mxGeometry x="245" width="61" height="9" as="geometry">
            <mxRectangle width="61" height="9" as="alternateBounds" />
          </mxGeometry>
        </mxCell>
        <mxCell id="l6hNSntbj8wJOxNSr21J-191" value="" style="shape=partialRectangle;html=1;whiteSpace=wrap;connectable=0;strokeColor=inherit;overflow=hidden;fillColor=none;top=0;left=0;bottom=0;right=0;pointerEvents=1;" vertex="1" parent="l6hNSntbj8wJOxNSr21J-185">
          <mxGeometry x="306" width="61" height="9" as="geometry">
            <mxRectangle width="61" height="9" as="alternateBounds" />
          </mxGeometry>
        </mxCell>
        <mxCell id="l6hNSntbj8wJOxNSr21J-192" value="" style="shape=tableRow;horizontal=0;startSize=0;swimlaneHead=0;swimlaneBody=0;strokeColor=inherit;top=0;left=0;bottom=0;right=0;collapsible=0;dropTarget=0;fillColor=none;points=[[0,0.5],[1,0.5]];portConstraint=eastwest;" vertex="1" parent="l6hNSntbj8wJOxNSr21J-184">
          <mxGeometry y="39" width="367" height="9" as="geometry" />
        </mxCell>
        <mxCell id="l6hNSntbj8wJOxNSr21J-193" value="" style="shape=partialRectangle;html=1;whiteSpace=wrap;connectable=0;strokeColor=inherit;overflow=hidden;fillColor=none;top=0;left=0;bottom=0;right=0;pointerEvents=1;" vertex="1" parent="l6hNSntbj8wJOxNSr21J-192">
          <mxGeometry width="61" height="9" as="geometry">
            <mxRectangle width="61" height="9" as="alternateBounds" />
          </mxGeometry>
        </mxCell>
        <mxCell id="l6hNSntbj8wJOxNSr21J-194" value="" style="shape=partialRectangle;html=1;whiteSpace=wrap;connectable=0;strokeColor=inherit;overflow=hidden;fillColor=none;top=0;left=0;bottom=0;right=0;pointerEvents=1;" vertex="1" parent="l6hNSntbj8wJOxNSr21J-192">
          <mxGeometry x="61" width="61" height="9" as="geometry">
            <mxRectangle width="61" height="9" as="alternateBounds" />
          </mxGeometry>
        </mxCell>
        <mxCell id="l6hNSntbj8wJOxNSr21J-195" value="" style="shape=partialRectangle;html=1;whiteSpace=wrap;connectable=0;strokeColor=inherit;overflow=hidden;fillColor=none;top=0;left=0;bottom=0;right=0;pointerEvents=1;" vertex="1" parent="l6hNSntbj8wJOxNSr21J-192">
          <mxGeometry x="122" width="62" height="9" as="geometry">
            <mxRectangle width="62" height="9" as="alternateBounds" />
          </mxGeometry>
        </mxCell>
        <mxCell id="l6hNSntbj8wJOxNSr21J-196" value="" style="shape=partialRectangle;html=1;whiteSpace=wrap;connectable=0;strokeColor=inherit;overflow=hidden;fillColor=none;top=0;left=0;bottom=0;right=0;pointerEvents=1;" vertex="1" parent="l6hNSntbj8wJOxNSr21J-192">
          <mxGeometry x="184" width="61" height="9" as="geometry">
            <mxRectangle width="61" height="9" as="alternateBounds" />
          </mxGeometry>
        </mxCell>
        <mxCell id="l6hNSntbj8wJOxNSr21J-197" value="" style="shape=partialRectangle;html=1;whiteSpace=wrap;connectable=0;strokeColor=inherit;overflow=hidden;fillColor=none;top=0;left=0;bottom=0;right=0;pointerEvents=1;" vertex="1" parent="l6hNSntbj8wJOxNSr21J-192">
          <mxGeometry x="245" width="61" height="9" as="geometry">
            <mxRectangle width="61" height="9" as="alternateBounds" />
          </mxGeometry>
        </mxCell>
        <mxCell id="l6hNSntbj8wJOxNSr21J-198" value="" style="shape=partialRectangle;html=1;whiteSpace=wrap;connectable=0;strokeColor=inherit;overflow=hidden;fillColor=none;top=0;left=0;bottom=0;right=0;pointerEvents=1;" vertex="1" parent="l6hNSntbj8wJOxNSr21J-192">
          <mxGeometry x="306" width="61" height="9" as="geometry">
            <mxRectangle width="61" height="9" as="alternateBounds" />
          </mxGeometry>
        </mxCell>
        <mxCell id="l6hNSntbj8wJOxNSr21J-200" value="Customers" style="shape=table;startSize=30;container=1;collapsible=1;childLayout=tableLayout;fixedRows=1;rowLines=0;fontStyle=1;align=center;resizeLast=1;" vertex="1" parent="1">
          <mxGeometry x="668" y="-1044" width="250" height="312" as="geometry" />
        </mxCell>
        <mxCell id="l6hNSntbj8wJOxNSr21J-201" value="" style="shape=partialRectangle;collapsible=0;dropTarget=0;pointerEvents=0;fillColor=none;points=[[0,0.5],[1,0.5]];portConstraint=eastwest;top=0;left=0;right=0;bottom=1;" vertex="1" parent="l6hNSntbj8wJOxNSr21J-200">
          <mxGeometry y="30" width="250" height="30" as="geometry" />
        </mxCell>
        <mxCell id="l6hNSntbj8wJOxNSr21J-202" value="PK" style="shape=partialRectangle;overflow=hidden;connectable=0;fillColor=none;top=0;left=0;bottom=0;right=0;fontStyle=1;" vertex="1" parent="l6hNSntbj8wJOxNSr21J-201">
          <mxGeometry width="30" height="30" as="geometry">
            <mxRectangle width="30" height="30" as="alternateBounds" />
          </mxGeometry>
        </mxCell>
        <mxCell id="l6hNSntbj8wJOxNSr21J-203" value="CustomerKey INT" style="shape=partialRectangle;overflow=hidden;connectable=0;fillColor=none;top=0;left=0;bottom=0;right=0;align=left;spacingLeft=6;fontStyle=5;" vertex="1" parent="l6hNSntbj8wJOxNSr21J-201">
          <mxGeometry x="30" width="220" height="30" as="geometry">
            <mxRectangle width="220" height="30" as="alternateBounds" />
          </mxGeometry>
        </mxCell>
        <mxCell id="l6hNSntbj8wJOxNSr21J-204" value="" style="shape=partialRectangle;collapsible=0;dropTarget=0;pointerEvents=0;fillColor=none;points=[[0,0.5],[1,0.5]];portConstraint=eastwest;top=0;left=0;right=0;bottom=0;" vertex="1" parent="l6hNSntbj8wJOxNSr21J-200">
          <mxGeometry y="60" width="250" height="30" as="geometry" />
        </mxCell>
        <mxCell id="l6hNSntbj8wJOxNSr21J-205" value="" style="shape=partialRectangle;overflow=hidden;connectable=0;fillColor=none;top=0;left=0;bottom=0;right=0;" vertex="1" parent="l6hNSntbj8wJOxNSr21J-204">
          <mxGeometry width="30" height="30" as="geometry">
            <mxRectangle width="30" height="30" as="alternateBounds" />
          </mxGeometry>
        </mxCell>
        <mxCell id="l6hNSntbj8wJOxNSr21J-206" value="CustomerID INT" style="shape=partialRectangle;overflow=hidden;connectable=0;fillColor=none;top=0;left=0;bottom=0;right=0;align=left;spacingLeft=6;" vertex="1" parent="l6hNSntbj8wJOxNSr21J-204">
          <mxGeometry x="30" width="220" height="30" as="geometry">
            <mxRectangle width="220" height="30" as="alternateBounds" />
          </mxGeometry>
        </mxCell>
        <mxCell id="l6hNSntbj8wJOxNSr21J-207" value="" style="shape=partialRectangle;collapsible=0;dropTarget=0;pointerEvents=0;fillColor=none;points=[[0,0.5],[1,0.5]];portConstraint=eastwest;top=0;left=0;right=0;bottom=0;" vertex="1" parent="l6hNSntbj8wJOxNSr21J-200">
          <mxGeometry y="90" width="250" height="30" as="geometry" />
        </mxCell>
        <mxCell id="l6hNSntbj8wJOxNSr21J-208" value="" style="shape=partialRectangle;overflow=hidden;connectable=0;fillColor=none;top=0;left=0;bottom=0;right=0;" vertex="1" parent="l6hNSntbj8wJOxNSr21J-207">
          <mxGeometry width="30" height="30" as="geometry">
            <mxRectangle width="30" height="30" as="alternateBounds" />
          </mxGeometry>
        </mxCell>
        <mxCell id="l6hNSntbj8wJOxNSr21J-209" value="FullName VARCHAR(255)" style="shape=partialRectangle;overflow=hidden;connectable=0;fillColor=none;top=0;left=0;bottom=0;right=0;align=left;spacingLeft=6;" vertex="1" parent="l6hNSntbj8wJOxNSr21J-207">
          <mxGeometry x="30" width="220" height="30" as="geometry">
            <mxRectangle width="220" height="30" as="alternateBounds" />
          </mxGeometry>
        </mxCell>
        <mxCell id="l6hNSntbj8wJOxNSr21J-210" value="" style="shape=tableRow;horizontal=0;startSize=0;swimlaneHead=0;swimlaneBody=0;fillColor=none;collapsible=0;dropTarget=0;points=[[0,0.5],[1,0.5]];portConstraint=eastwest;top=0;left=0;right=0;bottom=0;" vertex="1" parent="l6hNSntbj8wJOxNSr21J-200">
          <mxGeometry y="120" width="250" height="30" as="geometry" />
        </mxCell>
        <mxCell id="l6hNSntbj8wJOxNSr21J-211" value="" style="shape=partialRectangle;connectable=0;fillColor=none;top=0;left=0;bottom=0;right=0;editable=1;overflow=hidden;" vertex="1" parent="l6hNSntbj8wJOxNSr21J-210">
          <mxGeometry width="30" height="30" as="geometry">
            <mxRectangle width="30" height="30" as="alternateBounds" />
          </mxGeometry>
        </mxCell>
        <mxCell id="l6hNSntbj8wJOxNSr21J-212" value="AGE INT" style="shape=partialRectangle;connectable=0;fillColor=none;top=0;left=0;bottom=0;right=0;align=left;spacingLeft=6;overflow=hidden;" vertex="1" parent="l6hNSntbj8wJOxNSr21J-210">
          <mxGeometry x="30" width="220" height="30" as="geometry">
            <mxRectangle width="220" height="30" as="alternateBounds" />
          </mxGeometry>
        </mxCell>
        <mxCell id="l6hNSntbj8wJOxNSr21J-213" value="" style="shape=tableRow;horizontal=0;startSize=0;swimlaneHead=0;swimlaneBody=0;fillColor=none;collapsible=0;dropTarget=0;points=[[0,0.5],[1,0.5]];portConstraint=eastwest;top=0;left=0;right=0;bottom=0;" vertex="1" parent="l6hNSntbj8wJOxNSr21J-200">
          <mxGeometry y="150" width="250" height="30" as="geometry" />
        </mxCell>
        <mxCell id="l6hNSntbj8wJOxNSr21J-214" value="" style="shape=partialRectangle;connectable=0;fillColor=none;top=0;left=0;bottom=0;right=0;editable=1;overflow=hidden;" vertex="1" parent="l6hNSntbj8wJOxNSr21J-213">
          <mxGeometry width="30" height="30" as="geometry">
            <mxRectangle width="30" height="30" as="alternateBounds" />
          </mxGeometry>
        </mxCell>
        <mxCell id="l6hNSntbj8wJOxNSr21J-215" value="MaritalStatus VARCHAR(10)" style="shape=partialRectangle;connectable=0;fillColor=none;top=0;left=0;bottom=0;right=0;align=left;spacingLeft=6;overflow=hidden;" vertex="1" parent="l6hNSntbj8wJOxNSr21J-213">
          <mxGeometry x="30" width="220" height="30" as="geometry">
            <mxRectangle width="220" height="30" as="alternateBounds" />
          </mxGeometry>
        </mxCell>
        <mxCell id="l6hNSntbj8wJOxNSr21J-216" value="" style="shape=tableRow;horizontal=0;startSize=0;swimlaneHead=0;swimlaneBody=0;fillColor=none;collapsible=0;dropTarget=0;points=[[0,0.5],[1,0.5]];portConstraint=eastwest;top=0;left=0;right=0;bottom=0;" vertex="1" parent="l6hNSntbj8wJOxNSr21J-200">
          <mxGeometry y="180" width="250" height="30" as="geometry" />
        </mxCell>
        <mxCell id="l6hNSntbj8wJOxNSr21J-217" value="" style="shape=partialRectangle;connectable=0;fillColor=none;top=0;left=0;bottom=0;right=0;editable=1;overflow=hidden;" vertex="1" parent="l6hNSntbj8wJOxNSr21J-216">
          <mxGeometry width="30" height="30" as="geometry">
            <mxRectangle width="30" height="30" as="alternateBounds" />
          </mxGeometry>
        </mxCell>
        <mxCell id="l6hNSntbj8wJOxNSr21J-218" value="Gender VARCHAR(10)" style="shape=partialRectangle;connectable=0;fillColor=none;top=0;left=0;bottom=0;right=0;align=left;spacingLeft=6;overflow=hidden;" vertex="1" parent="l6hNSntbj8wJOxNSr21J-216">
          <mxGeometry x="30" width="220" height="30" as="geometry">
            <mxRectangle width="220" height="30" as="alternateBounds" />
          </mxGeometry>
        </mxCell>
        <mxCell id="l6hNSntbj8wJOxNSr21J-219" value="" style="shape=tableRow;horizontal=0;startSize=0;swimlaneHead=0;swimlaneBody=0;fillColor=none;collapsible=0;dropTarget=0;points=[[0,0.5],[1,0.5]];portConstraint=eastwest;top=0;left=0;right=0;bottom=0;" vertex="1" parent="l6hNSntbj8wJOxNSr21J-200">
          <mxGeometry y="210" width="250" height="30" as="geometry" />
        </mxCell>
        <mxCell id="l6hNSntbj8wJOxNSr21J-220" value="" style="shape=partialRectangle;connectable=0;fillColor=none;top=0;left=0;bottom=0;right=0;editable=1;overflow=hidden;" vertex="1" parent="l6hNSntbj8wJOxNSr21J-219">
          <mxGeometry width="30" height="30" as="geometry">
            <mxRectangle width="30" height="30" as="alternateBounds" />
          </mxGeometry>
        </mxCell>
        <mxCell id="l6hNSntbj8wJOxNSr21J-221" value="Profession VARCHAR(45)" style="shape=partialRectangle;connectable=0;fillColor=none;top=0;left=0;bottom=0;right=0;align=left;spacingLeft=6;overflow=hidden;" vertex="1" parent="l6hNSntbj8wJOxNSr21J-219">
          <mxGeometry x="30" width="220" height="30" as="geometry">
            <mxRectangle width="220" height="30" as="alternateBounds" />
          </mxGeometry>
        </mxCell>
        <mxCell id="l6hNSntbj8wJOxNSr21J-222" value="" style="shape=tableRow;horizontal=0;startSize=0;swimlaneHead=0;swimlaneBody=0;fillColor=none;collapsible=0;dropTarget=0;points=[[0,0.5],[1,0.5]];portConstraint=eastwest;top=0;left=0;right=0;bottom=0;" vertex="1" parent="l6hNSntbj8wJOxNSr21J-200">
          <mxGeometry y="240" width="250" height="30" as="geometry" />
        </mxCell>
        <mxCell id="l6hNSntbj8wJOxNSr21J-223" value="" style="shape=partialRectangle;connectable=0;fillColor=none;top=0;left=0;bottom=0;right=0;editable=1;overflow=hidden;" vertex="1" parent="l6hNSntbj8wJOxNSr21J-222">
          <mxGeometry width="30" height="30" as="geometry">
            <mxRectangle width="30" height="30" as="alternateBounds" />
          </mxGeometry>
        </mxCell>
        <mxCell id="l6hNSntbj8wJOxNSr21J-224" value="IncomeLevel VARCHAR(45)" style="shape=partialRectangle;connectable=0;fillColor=none;top=0;left=0;bottom=0;right=0;align=left;spacingLeft=6;overflow=hidden;" vertex="1" parent="l6hNSntbj8wJOxNSr21J-222">
          <mxGeometry x="30" width="220" height="30" as="geometry">
            <mxRectangle width="220" height="30" as="alternateBounds" />
          </mxGeometry>
        </mxCell>
        <mxCell id="l6hNSntbj8wJOxNSr21J-225" value="" style="shape=tableRow;horizontal=0;startSize=0;swimlaneHead=0;swimlaneBody=0;fillColor=none;collapsible=0;dropTarget=0;points=[[0,0.5],[1,0.5]];portConstraint=eastwest;top=0;left=0;right=0;bottom=0;" vertex="1" parent="l6hNSntbj8wJOxNSr21J-200">
          <mxGeometry y="270" width="250" height="30" as="geometry" />
        </mxCell>
        <mxCell id="l6hNSntbj8wJOxNSr21J-226" value="" style="shape=partialRectangle;connectable=0;fillColor=none;top=0;left=0;bottom=0;right=0;editable=1;overflow=hidden;" vertex="1" parent="l6hNSntbj8wJOxNSr21J-225">
          <mxGeometry width="30" height="30" as="geometry">
            <mxRectangle width="30" height="30" as="alternateBounds" />
          </mxGeometry>
        </mxCell>
        <mxCell id="l6hNSntbj8wJOxNSr21J-227" value="AgeBand VARCHAR(45)" style="shape=partialRectangle;connectable=0;fillColor=none;top=0;left=0;bottom=0;right=0;align=left;spacingLeft=6;overflow=hidden;" vertex="1" parent="l6hNSntbj8wJOxNSr21J-225">
          <mxGeometry x="30" width="220" height="30" as="geometry">
            <mxRectangle width="220" height="30" as="alternateBounds" />
          </mxGeometry>
        </mxCell>
        <mxCell id="l6hNSntbj8wJOxNSr21J-234" value="Products" style="shape=table;startSize=30;container=1;collapsible=1;childLayout=tableLayout;fixedRows=1;rowLines=0;fontStyle=1;align=center;resizeLast=1;html=1;" vertex="1" parent="1">
          <mxGeometry x="688" y="-588" width="230" height="180" as="geometry" />
        </mxCell>
        <mxCell id="l6hNSntbj8wJOxNSr21J-235" value="" style="shape=tableRow;horizontal=0;startSize=0;swimlaneHead=0;swimlaneBody=0;fillColor=none;collapsible=0;dropTarget=0;points=[[0,0.5],[1,0.5]];portConstraint=eastwest;top=0;left=0;right=0;bottom=1;" vertex="1" parent="l6hNSntbj8wJOxNSr21J-234">
          <mxGeometry y="30" width="230" height="30" as="geometry" />
        </mxCell>
        <mxCell id="l6hNSntbj8wJOxNSr21J-236" value="PK" style="shape=partialRectangle;connectable=0;fillColor=none;top=0;left=0;bottom=0;right=0;fontStyle=1;overflow=hidden;whiteSpace=wrap;html=1;" vertex="1" parent="l6hNSntbj8wJOxNSr21J-235">
          <mxGeometry width="30" height="30" as="geometry">
            <mxRectangle width="30" height="30" as="alternateBounds" />
          </mxGeometry>
        </mxCell>
        <mxCell id="l6hNSntbj8wJOxNSr21J-237" value="ProductKey INT" style="shape=partialRectangle;connectable=0;fillColor=none;top=0;left=0;bottom=0;right=0;align=left;spacingLeft=6;fontStyle=5;overflow=hidden;whiteSpace=wrap;html=1;" vertex="1" parent="l6hNSntbj8wJOxNSr21J-235">
          <mxGeometry x="30" width="200" height="30" as="geometry">
            <mxRectangle width="200" height="30" as="alternateBounds" />
          </mxGeometry>
        </mxCell>
        <mxCell id="l6hNSntbj8wJOxNSr21J-238" value="" style="shape=tableRow;horizontal=0;startSize=0;swimlaneHead=0;swimlaneBody=0;fillColor=none;collapsible=0;dropTarget=0;points=[[0,0.5],[1,0.5]];portConstraint=eastwest;top=0;left=0;right=0;bottom=0;" vertex="1" parent="l6hNSntbj8wJOxNSr21J-234">
          <mxGeometry y="60" width="230" height="30" as="geometry" />
        </mxCell>
        <mxCell id="l6hNSntbj8wJOxNSr21J-239" value="" style="shape=partialRectangle;connectable=0;fillColor=none;top=0;left=0;bottom=0;right=0;editable=1;overflow=hidden;whiteSpace=wrap;html=1;" vertex="1" parent="l6hNSntbj8wJOxNSr21J-238">
          <mxGeometry width="30" height="30" as="geometry">
            <mxRectangle width="30" height="30" as="alternateBounds" />
          </mxGeometry>
        </mxCell>
        <mxCell id="l6hNSntbj8wJOxNSr21J-240" value="ProductName VARCHAR(255)" style="shape=partialRectangle;connectable=0;fillColor=none;top=0;left=0;bottom=0;right=0;align=left;spacingLeft=6;overflow=hidden;whiteSpace=wrap;html=1;" vertex="1" parent="l6hNSntbj8wJOxNSr21J-238">
          <mxGeometry x="30" width="200" height="30" as="geometry">
            <mxRectangle width="200" height="30" as="alternateBounds" />
          </mxGeometry>
        </mxCell>
        <mxCell id="l6hNSntbj8wJOxNSr21J-241" value="" style="shape=tableRow;horizontal=0;startSize=0;swimlaneHead=0;swimlaneBody=0;fillColor=none;collapsible=0;dropTarget=0;points=[[0,0.5],[1,0.5]];portConstraint=eastwest;top=0;left=0;right=0;bottom=0;" vertex="1" parent="l6hNSntbj8wJOxNSr21J-234">
          <mxGeometry y="90" width="230" height="30" as="geometry" />
        </mxCell>
        <mxCell id="l6hNSntbj8wJOxNSr21J-242" value="" style="shape=partialRectangle;connectable=0;fillColor=none;top=0;left=0;bottom=0;right=0;editable=1;overflow=hidden;whiteSpace=wrap;html=1;" vertex="1" parent="l6hNSntbj8wJOxNSr21J-241">
          <mxGeometry width="30" height="30" as="geometry">
            <mxRectangle width="30" height="30" as="alternateBounds" />
          </mxGeometry>
        </mxCell>
        <mxCell id="l6hNSntbj8wJOxNSr21J-243" value="CategoryKey VARCHAR(45)" style="shape=partialRectangle;connectable=0;fillColor=none;top=0;left=0;bottom=0;right=0;align=left;spacingLeft=6;overflow=hidden;whiteSpace=wrap;html=1;" vertex="1" parent="l6hNSntbj8wJOxNSr21J-241">
          <mxGeometry x="30" width="200" height="30" as="geometry">
            <mxRectangle width="200" height="30" as="alternateBounds" />
          </mxGeometry>
        </mxCell>
        <mxCell id="l6hNSntbj8wJOxNSr21J-244" value="" style="shape=tableRow;horizontal=0;startSize=0;swimlaneHead=0;swimlaneBody=0;fillColor=none;collapsible=0;dropTarget=0;points=[[0,0.5],[1,0.5]];portConstraint=eastwest;top=0;left=0;right=0;bottom=0;" vertex="1" parent="l6hNSntbj8wJOxNSr21J-234">
          <mxGeometry y="120" width="230" height="30" as="geometry" />
        </mxCell>
        <mxCell id="l6hNSntbj8wJOxNSr21J-245" value="" style="shape=partialRectangle;connectable=0;fillColor=none;top=0;left=0;bottom=0;right=0;editable=1;overflow=hidden;" vertex="1" parent="l6hNSntbj8wJOxNSr21J-244">
          <mxGeometry width="30" height="30" as="geometry">
            <mxRectangle width="30" height="30" as="alternateBounds" />
          </mxGeometry>
        </mxCell>
        <mxCell id="l6hNSntbj8wJOxNSr21J-246" value="Description VARCHAR(255)" style="shape=partialRectangle;connectable=0;fillColor=none;top=0;left=0;bottom=0;right=0;align=left;spacingLeft=6;overflow=hidden;" vertex="1" parent="l6hNSntbj8wJOxNSr21J-244">
          <mxGeometry x="30" width="200" height="30" as="geometry">
            <mxRectangle width="200" height="30" as="alternateBounds" />
          </mxGeometry>
        </mxCell>
        <mxCell id="l6hNSntbj8wJOxNSr21J-305" value="" style="shape=tableRow;horizontal=0;startSize=0;swimlaneHead=0;swimlaneBody=0;fillColor=none;collapsible=0;dropTarget=0;points=[[0,0.5],[1,0.5]];portConstraint=eastwest;top=0;left=0;right=0;bottom=0;" vertex="1" parent="l6hNSntbj8wJOxNSr21J-234">
          <mxGeometry y="150" width="230" height="30" as="geometry" />
        </mxCell>
        <mxCell id="l6hNSntbj8wJOxNSr21J-306" value="" style="shape=partialRectangle;connectable=0;fillColor=none;top=0;left=0;bottom=0;right=0;editable=1;overflow=hidden;" vertex="1" parent="l6hNSntbj8wJOxNSr21J-305">
          <mxGeometry width="30" height="30" as="geometry">
            <mxRectangle width="30" height="30" as="alternateBounds" />
          </mxGeometry>
        </mxCell>
        <mxCell id="l6hNSntbj8wJOxNSr21J-307" value="Subcategory VARCHAR(255)" style="shape=partialRectangle;connectable=0;fillColor=none;top=0;left=0;bottom=0;right=0;align=left;spacingLeft=6;overflow=hidden;" vertex="1" parent="l6hNSntbj8wJOxNSr21J-305">
          <mxGeometry x="30" width="200" height="30" as="geometry">
            <mxRectangle width="200" height="30" as="alternateBounds" />
          </mxGeometry>
        </mxCell>
        <mxCell id="l6hNSntbj8wJOxNSr21J-247" value="Sales" style="shape=table;startSize=30;container=1;collapsible=1;childLayout=tableLayout;fixedRows=1;rowLines=0;fontStyle=1;align=center;resizeLast=1;" vertex="1" parent="1">
          <mxGeometry x="402" y="-900" width="216" height="300" as="geometry" />
        </mxCell>
        <mxCell id="l6hNSntbj8wJOxNSr21J-248" value="" style="shape=partialRectangle;collapsible=0;dropTarget=0;pointerEvents=0;fillColor=none;points=[[0,0.5],[1,0.5]];portConstraint=eastwest;top=0;left=0;right=0;bottom=1;" vertex="1" parent="l6hNSntbj8wJOxNSr21J-247">
          <mxGeometry y="30" width="216" height="30" as="geometry" />
        </mxCell>
        <mxCell id="l6hNSntbj8wJOxNSr21J-249" value="PK" style="shape=partialRectangle;overflow=hidden;connectable=0;fillColor=none;top=0;left=0;bottom=0;right=0;fontStyle=1;" vertex="1" parent="l6hNSntbj8wJOxNSr21J-248">
          <mxGeometry width="30" height="30" as="geometry">
            <mxRectangle width="30" height="30" as="alternateBounds" />
          </mxGeometry>
        </mxCell>
        <mxCell id="l6hNSntbj8wJOxNSr21J-250" value="SalesKey INT" style="shape=partialRectangle;overflow=hidden;connectable=0;fillColor=none;top=0;left=0;bottom=0;right=0;align=left;spacingLeft=6;fontStyle=5;" vertex="1" parent="l6hNSntbj8wJOxNSr21J-248">
          <mxGeometry x="30" width="186" height="30" as="geometry">
            <mxRectangle width="186" height="30" as="alternateBounds" />
          </mxGeometry>
        </mxCell>
        <mxCell id="l6hNSntbj8wJOxNSr21J-251" value="" style="shape=partialRectangle;collapsible=0;dropTarget=0;pointerEvents=0;fillColor=none;points=[[0,0.5],[1,0.5]];portConstraint=eastwest;top=0;left=0;right=0;bottom=0;" vertex="1" parent="l6hNSntbj8wJOxNSr21J-247">
          <mxGeometry y="60" width="216" height="30" as="geometry" />
        </mxCell>
        <mxCell id="l6hNSntbj8wJOxNSr21J-252" value="" style="shape=partialRectangle;overflow=hidden;connectable=0;fillColor=none;top=0;left=0;bottom=0;right=0;" vertex="1" parent="l6hNSntbj8wJOxNSr21J-251">
          <mxGeometry width="30" height="30" as="geometry">
            <mxRectangle width="30" height="30" as="alternateBounds" />
          </mxGeometry>
        </mxCell>
        <mxCell id="l6hNSntbj8wJOxNSr21J-253" value="Price Decimal" style="shape=partialRectangle;overflow=hidden;connectable=0;fillColor=none;top=0;left=0;bottom=0;right=0;align=left;spacingLeft=6;" vertex="1" parent="l6hNSntbj8wJOxNSr21J-251">
          <mxGeometry x="30" width="186" height="30" as="geometry">
            <mxRectangle width="186" height="30" as="alternateBounds" />
          </mxGeometry>
        </mxCell>
        <mxCell id="l6hNSntbj8wJOxNSr21J-254" value="" style="shape=tableRow;horizontal=0;startSize=0;swimlaneHead=0;swimlaneBody=0;fillColor=none;collapsible=0;dropTarget=0;points=[[0,0.5],[1,0.5]];portConstraint=eastwest;top=0;left=0;right=0;bottom=0;" vertex="1" parent="l6hNSntbj8wJOxNSr21J-247">
          <mxGeometry y="90" width="216" height="30" as="geometry" />
        </mxCell>
        <mxCell id="l6hNSntbj8wJOxNSr21J-255" value="" style="shape=partialRectangle;connectable=0;fillColor=none;top=0;left=0;bottom=0;right=0;editable=1;overflow=hidden;" vertex="1" parent="l6hNSntbj8wJOxNSr21J-254">
          <mxGeometry width="30" height="30" as="geometry">
            <mxRectangle width="30" height="30" as="alternateBounds" />
          </mxGeometry>
        </mxCell>
        <mxCell id="l6hNSntbj8wJOxNSr21J-256" value="Cost Decimal" style="shape=partialRectangle;connectable=0;fillColor=none;top=0;left=0;bottom=0;right=0;align=left;spacingLeft=6;overflow=hidden;" vertex="1" parent="l6hNSntbj8wJOxNSr21J-254">
          <mxGeometry x="30" width="186" height="30" as="geometry">
            <mxRectangle width="186" height="30" as="alternateBounds" />
          </mxGeometry>
        </mxCell>
        <mxCell id="l6hNSntbj8wJOxNSr21J-257" value="" style="shape=tableRow;horizontal=0;startSize=0;swimlaneHead=0;swimlaneBody=0;fillColor=none;collapsible=0;dropTarget=0;points=[[0,0.5],[1,0.5]];portConstraint=eastwest;top=0;left=0;right=0;bottom=0;" vertex="1" parent="l6hNSntbj8wJOxNSr21J-247">
          <mxGeometry y="120" width="216" height="30" as="geometry" />
        </mxCell>
        <mxCell id="l6hNSntbj8wJOxNSr21J-258" value="" style="shape=partialRectangle;connectable=0;fillColor=none;top=0;left=0;bottom=0;right=0;editable=1;overflow=hidden;" vertex="1" parent="l6hNSntbj8wJOxNSr21J-257">
          <mxGeometry width="30" height="30" as="geometry">
            <mxRectangle width="30" height="30" as="alternateBounds" />
          </mxGeometry>
        </mxCell>
        <mxCell id="l6hNSntbj8wJOxNSr21J-259" value="Shipping Decimal" style="shape=partialRectangle;connectable=0;fillColor=none;top=0;left=0;bottom=0;right=0;align=left;spacingLeft=6;overflow=hidden;" vertex="1" parent="l6hNSntbj8wJOxNSr21J-257">
          <mxGeometry x="30" width="186" height="30" as="geometry">
            <mxRectangle width="186" height="30" as="alternateBounds" />
          </mxGeometry>
        </mxCell>
        <mxCell id="l6hNSntbj8wJOxNSr21J-260" value="" style="shape=tableRow;horizontal=0;startSize=0;swimlaneHead=0;swimlaneBody=0;fillColor=none;collapsible=0;dropTarget=0;points=[[0,0.5],[1,0.5]];portConstraint=eastwest;top=0;left=0;right=0;bottom=0;" vertex="1" parent="l6hNSntbj8wJOxNSr21J-247">
          <mxGeometry y="150" width="216" height="30" as="geometry" />
        </mxCell>
        <mxCell id="l6hNSntbj8wJOxNSr21J-261" value="" style="shape=partialRectangle;connectable=0;fillColor=none;top=0;left=0;bottom=0;right=0;editable=1;overflow=hidden;" vertex="1" parent="l6hNSntbj8wJOxNSr21J-260">
          <mxGeometry width="30" height="30" as="geometry">
            <mxRectangle width="30" height="30" as="alternateBounds" />
          </mxGeometry>
        </mxCell>
        <mxCell id="l6hNSntbj8wJOxNSr21J-262" value="Quantity INT" style="shape=partialRectangle;connectable=0;fillColor=none;top=0;left=0;bottom=0;right=0;align=left;spacingLeft=6;overflow=hidden;" vertex="1" parent="l6hNSntbj8wJOxNSr21J-260">
          <mxGeometry x="30" width="186" height="30" as="geometry">
            <mxRectangle width="186" height="30" as="alternateBounds" />
          </mxGeometry>
        </mxCell>
        <mxCell id="l6hNSntbj8wJOxNSr21J-263" value="" style="shape=tableRow;horizontal=0;startSize=0;swimlaneHead=0;swimlaneBody=0;fillColor=none;collapsible=0;dropTarget=0;points=[[0,0.5],[1,0.5]];portConstraint=eastwest;top=0;left=0;right=0;bottom=0;" vertex="1" parent="l6hNSntbj8wJOxNSr21J-247">
          <mxGeometry y="180" width="216" height="30" as="geometry" />
        </mxCell>
        <mxCell id="l6hNSntbj8wJOxNSr21J-264" value="FK" style="shape=partialRectangle;connectable=0;fillColor=none;top=0;left=0;bottom=0;right=0;fontStyle=0;overflow=hidden;whiteSpace=wrap;html=1;" vertex="1" parent="l6hNSntbj8wJOxNSr21J-263">
          <mxGeometry width="30" height="30" as="geometry">
            <mxRectangle width="30" height="30" as="alternateBounds" />
          </mxGeometry>
        </mxCell>
        <mxCell id="l6hNSntbj8wJOxNSr21J-265" value="CustomerKey INT" style="shape=partialRectangle;connectable=0;fillColor=none;top=0;left=0;bottom=0;right=0;align=left;spacingLeft=6;fontStyle=0;overflow=hidden;whiteSpace=wrap;html=1;" vertex="1" parent="l6hNSntbj8wJOxNSr21J-263">
          <mxGeometry x="30" width="186" height="30" as="geometry">
            <mxRectangle width="186" height="30" as="alternateBounds" />
          </mxGeometry>
        </mxCell>
        <mxCell id="l6hNSntbj8wJOxNSr21J-266" value="" style="shape=tableRow;horizontal=0;startSize=0;swimlaneHead=0;swimlaneBody=0;fillColor=none;collapsible=0;dropTarget=0;points=[[0,0.5],[1,0.5]];portConstraint=eastwest;top=0;left=0;right=0;bottom=0;" vertex="1" parent="l6hNSntbj8wJOxNSr21J-247">
          <mxGeometry y="210" width="216" height="30" as="geometry" />
        </mxCell>
        <mxCell id="l6hNSntbj8wJOxNSr21J-267" value="FK" style="shape=partialRectangle;connectable=0;fillColor=none;top=0;left=0;bottom=0;right=0;fontStyle=0;overflow=hidden;whiteSpace=wrap;html=1;" vertex="1" parent="l6hNSntbj8wJOxNSr21J-266">
          <mxGeometry width="30" height="30" as="geometry">
            <mxRectangle width="30" height="30" as="alternateBounds" />
          </mxGeometry>
        </mxCell>
        <mxCell id="l6hNSntbj8wJOxNSr21J-268" value="ProductKey INT" style="shape=partialRectangle;connectable=0;fillColor=none;top=0;left=0;bottom=0;right=0;align=left;spacingLeft=6;fontStyle=0;overflow=hidden;whiteSpace=wrap;html=1;" vertex="1" parent="l6hNSntbj8wJOxNSr21J-266">
          <mxGeometry x="30" width="186" height="30" as="geometry">
            <mxRectangle width="186" height="30" as="alternateBounds" />
          </mxGeometry>
        </mxCell>
        <mxCell id="l6hNSntbj8wJOxNSr21J-269" value="" style="shape=tableRow;horizontal=0;startSize=0;swimlaneHead=0;swimlaneBody=0;fillColor=none;collapsible=0;dropTarget=0;points=[[0,0.5],[1,0.5]];portConstraint=eastwest;top=0;left=0;right=0;bottom=0;" vertex="1" parent="l6hNSntbj8wJOxNSr21J-247">
          <mxGeometry y="240" width="216" height="30" as="geometry" />
        </mxCell>
        <mxCell id="l6hNSntbj8wJOxNSr21J-270" value="FK" style="shape=partialRectangle;connectable=0;fillColor=none;top=0;left=0;bottom=0;right=0;fontStyle=0;overflow=hidden;whiteSpace=wrap;html=1;" vertex="1" parent="l6hNSntbj8wJOxNSr21J-269">
          <mxGeometry width="30" height="30" as="geometry">
            <mxRectangle width="30" height="30" as="alternateBounds" />
          </mxGeometry>
        </mxCell>
        <mxCell id="l6hNSntbj8wJOxNSr21J-271" value="LocationKey INT" style="shape=partialRectangle;connectable=0;fillColor=none;top=0;left=0;bottom=0;right=0;align=left;spacingLeft=6;fontStyle=0;overflow=hidden;whiteSpace=wrap;html=1;" vertex="1" parent="l6hNSntbj8wJOxNSr21J-269">
          <mxGeometry x="30" width="186" height="30" as="geometry">
            <mxRectangle width="186" height="30" as="alternateBounds" />
          </mxGeometry>
        </mxCell>
        <mxCell id="l6hNSntbj8wJOxNSr21J-272" value="" style="shape=tableRow;horizontal=0;startSize=0;swimlaneHead=0;swimlaneBody=0;fillColor=none;collapsible=0;dropTarget=0;points=[[0,0.5],[1,0.5]];portConstraint=eastwest;top=0;left=0;right=0;bottom=0;" vertex="1" parent="l6hNSntbj8wJOxNSr21J-247">
          <mxGeometry y="270" width="216" height="30" as="geometry" />
        </mxCell>
        <mxCell id="l6hNSntbj8wJOxNSr21J-273" value="FK" style="shape=partialRectangle;connectable=0;fillColor=none;top=0;left=0;bottom=0;right=0;fontStyle=0;overflow=hidden;whiteSpace=wrap;html=1;" vertex="1" parent="l6hNSntbj8wJOxNSr21J-272">
          <mxGeometry width="30" height="30" as="geometry">
            <mxRectangle width="30" height="30" as="alternateBounds" />
          </mxGeometry>
        </mxCell>
        <mxCell id="l6hNSntbj8wJOxNSr21J-274" value="TimeKey INT" style="shape=partialRectangle;connectable=0;fillColor=none;top=0;left=0;bottom=0;right=0;align=left;spacingLeft=6;fontStyle=0;overflow=hidden;whiteSpace=wrap;html=1;" vertex="1" parent="l6hNSntbj8wJOxNSr21J-272">
          <mxGeometry x="30" width="186" height="30" as="geometry">
            <mxRectangle width="186" height="30" as="alternateBounds" />
          </mxGeometry>
        </mxCell>
        <mxCell id="l6hNSntbj8wJOxNSr21J-275" value="" style="edgeStyle=elbowEdgeStyle;elbow=horizontal;endArrow=classic;html=1;curved=0;rounded=0;endSize=8;startSize=8;exitX=0;exitY=0.5;exitDx=0;exitDy=0;entryX=1;entryY=0.5;entryDx=0;entryDy=0;" edge="1" parent="1" source="l6hNSntbj8wJOxNSr21J-269" target="l6hNSntbj8wJOxNSr21J-342">
          <mxGeometry width="50" height="50" relative="1" as="geometry">
            <mxPoint x="354" y="-600" as="sourcePoint" />
            <mxPoint x="306" y="-987" as="targetPoint" />
            <Array as="points">
              <mxPoint x="354" y="-792" />
            </Array>
          </mxGeometry>
        </mxCell>
        <mxCell id="l6hNSntbj8wJOxNSr21J-276" value="" style="edgeStyle=elbowEdgeStyle;elbow=horizontal;endArrow=classic;html=1;curved=0;rounded=0;endSize=8;startSize=8;exitX=0;exitY=0.5;exitDx=0;exitDy=0;entryX=1;entryY=0.5;entryDx=0;entryDy=0;" edge="1" parent="1" source="l6hNSntbj8wJOxNSr21J-272" target="l6hNSntbj8wJOxNSr21J-313">
          <mxGeometry width="50" height="50" relative="1" as="geometry">
            <mxPoint x="318" y="-564" as="sourcePoint" />
            <mxPoint x="342" y="-453" as="targetPoint" />
            <Array as="points">
              <mxPoint x="348" y="-516" />
            </Array>
          </mxGeometry>
        </mxCell>
        <mxCell id="l6hNSntbj8wJOxNSr21J-277" value="" style="edgeStyle=elbowEdgeStyle;elbow=horizontal;endArrow=classic;html=1;curved=0;rounded=0;endSize=8;startSize=8;exitX=1.009;exitY=0.133;exitDx=0;exitDy=0;exitPerimeter=0;entryX=0;entryY=0.5;entryDx=0;entryDy=0;" edge="1" parent="1">
          <mxGeometry width="50" height="50" relative="1" as="geometry">
            <mxPoint x="618.0039999999999" y="-698.01" as="sourcePoint" />
            <mxPoint x="666.06" y="-999" as="targetPoint" />
            <Array as="points">
              <mxPoint x="640.06" y="-840" />
            </Array>
          </mxGeometry>
        </mxCell>
        <mxCell id="l6hNSntbj8wJOxNSr21J-278" value="" style="edgeStyle=elbowEdgeStyle;elbow=horizontal;endArrow=classic;html=1;curved=0;rounded=0;endSize=8;startSize=8;exitX=1.019;exitY=-0.033;exitDx=0;exitDy=0;exitPerimeter=0;entryX=0.009;entryY=0.6;entryDx=0;entryDy=0;entryPerimeter=0;" edge="1" parent="1" target="l6hNSntbj8wJOxNSr21J-235">
          <mxGeometry width="50" height="50" relative="1" as="geometry">
            <mxPoint x="618.004" y="-672.99" as="sourcePoint" />
            <mxPoint x="683.9" y="-459" as="targetPoint" />
            <Array as="points">
              <mxPoint x="637.9" y="-612" />
            </Array>
          </mxGeometry>
        </mxCell>
        <mxCell id="l6hNSntbj8wJOxNSr21J-312" value="Time" style="shape=table;startSize=30;container=1;collapsible=1;childLayout=tableLayout;fixedRows=1;rowLines=0;fontStyle=1;align=center;resizeLast=1;html=1;" vertex="1" parent="1">
          <mxGeometry x="48" y="-576" width="192" height="216" as="geometry" />
        </mxCell>
        <mxCell id="l6hNSntbj8wJOxNSr21J-313" value="" style="shape=tableRow;horizontal=0;startSize=0;swimlaneHead=0;swimlaneBody=0;fillColor=none;collapsible=0;dropTarget=0;points=[[0,0.5],[1,0.5]];portConstraint=eastwest;top=0;left=0;right=0;bottom=1;" vertex="1" parent="l6hNSntbj8wJOxNSr21J-312">
          <mxGeometry y="30" width="192" height="30" as="geometry" />
        </mxCell>
        <mxCell id="l6hNSntbj8wJOxNSr21J-314" value="PK" style="shape=partialRectangle;connectable=0;fillColor=none;top=0;left=0;bottom=0;right=0;fontStyle=1;overflow=hidden;whiteSpace=wrap;html=1;" vertex="1" parent="l6hNSntbj8wJOxNSr21J-313">
          <mxGeometry width="30" height="30" as="geometry">
            <mxRectangle width="30" height="30" as="alternateBounds" />
          </mxGeometry>
        </mxCell>
        <mxCell id="l6hNSntbj8wJOxNSr21J-315" value="TimeKey INT" style="shape=partialRectangle;connectable=0;fillColor=none;top=0;left=0;bottom=0;right=0;align=left;spacingLeft=6;fontStyle=5;overflow=hidden;whiteSpace=wrap;html=1;" vertex="1" parent="l6hNSntbj8wJOxNSr21J-313">
          <mxGeometry x="30" width="162" height="30" as="geometry">
            <mxRectangle width="162" height="30" as="alternateBounds" />
          </mxGeometry>
        </mxCell>
        <mxCell id="l6hNSntbj8wJOxNSr21J-316" value="" style="shape=tableRow;horizontal=0;startSize=0;swimlaneHead=0;swimlaneBody=0;fillColor=none;collapsible=0;dropTarget=0;points=[[0,0.5],[1,0.5]];portConstraint=eastwest;top=0;left=0;right=0;bottom=0;" vertex="1" parent="l6hNSntbj8wJOxNSr21J-312">
          <mxGeometry y="60" width="192" height="30" as="geometry" />
        </mxCell>
        <mxCell id="l6hNSntbj8wJOxNSr21J-317" value="" style="shape=partialRectangle;connectable=0;fillColor=none;top=0;left=0;bottom=0;right=0;editable=1;overflow=hidden;whiteSpace=wrap;html=1;" vertex="1" parent="l6hNSntbj8wJOxNSr21J-316">
          <mxGeometry width="30" height="30" as="geometry">
            <mxRectangle width="30" height="30" as="alternateBounds" />
          </mxGeometry>
        </mxCell>
        <mxCell id="l6hNSntbj8wJOxNSr21J-318" value="FullDate DATE" style="shape=partialRectangle;connectable=0;fillColor=none;top=0;left=0;bottom=0;right=0;align=left;spacingLeft=6;overflow=hidden;whiteSpace=wrap;html=1;" vertex="1" parent="l6hNSntbj8wJOxNSr21J-316">
          <mxGeometry x="30" width="162" height="30" as="geometry">
            <mxRectangle width="162" height="30" as="alternateBounds" />
          </mxGeometry>
        </mxCell>
        <mxCell id="l6hNSntbj8wJOxNSr21J-319" value="" style="shape=tableRow;horizontal=0;startSize=0;swimlaneHead=0;swimlaneBody=0;fillColor=none;collapsible=0;dropTarget=0;points=[[0,0.5],[1,0.5]];portConstraint=eastwest;top=0;left=0;right=0;bottom=0;" vertex="1" parent="l6hNSntbj8wJOxNSr21J-312">
          <mxGeometry y="90" width="192" height="30" as="geometry" />
        </mxCell>
        <mxCell id="l6hNSntbj8wJOxNSr21J-320" value="" style="shape=partialRectangle;connectable=0;fillColor=none;top=0;left=0;bottom=0;right=0;editable=1;overflow=hidden;whiteSpace=wrap;html=1;" vertex="1" parent="l6hNSntbj8wJOxNSr21J-319">
          <mxGeometry width="30" height="30" as="geometry">
            <mxRectangle width="30" height="30" as="alternateBounds" />
          </mxGeometry>
        </mxCell>
        <mxCell id="l6hNSntbj8wJOxNSr21J-321" value="Year INT" style="shape=partialRectangle;connectable=0;fillColor=none;top=0;left=0;bottom=0;right=0;align=left;spacingLeft=6;overflow=hidden;whiteSpace=wrap;html=1;" vertex="1" parent="l6hNSntbj8wJOxNSr21J-319">
          <mxGeometry x="30" width="162" height="30" as="geometry">
            <mxRectangle width="162" height="30" as="alternateBounds" />
          </mxGeometry>
        </mxCell>
        <mxCell id="l6hNSntbj8wJOxNSr21J-322" value="" style="shape=tableRow;horizontal=0;startSize=0;swimlaneHead=0;swimlaneBody=0;fillColor=none;collapsible=0;dropTarget=0;points=[[0,0.5],[1,0.5]];portConstraint=eastwest;top=0;left=0;right=0;bottom=0;" vertex="1" parent="l6hNSntbj8wJOxNSr21J-312">
          <mxGeometry y="120" width="192" height="30" as="geometry" />
        </mxCell>
        <mxCell id="l6hNSntbj8wJOxNSr21J-323" value="" style="shape=partialRectangle;connectable=0;fillColor=none;top=0;left=0;bottom=0;right=0;editable=1;overflow=hidden;whiteSpace=wrap;html=1;" vertex="1" parent="l6hNSntbj8wJOxNSr21J-322">
          <mxGeometry width="30" height="30" as="geometry">
            <mxRectangle width="30" height="30" as="alternateBounds" />
          </mxGeometry>
        </mxCell>
        <mxCell id="l6hNSntbj8wJOxNSr21J-324" value="Quarter VARCHAR(45)" style="shape=partialRectangle;connectable=0;fillColor=none;top=0;left=0;bottom=0;right=0;align=left;spacingLeft=6;overflow=hidden;whiteSpace=wrap;html=1;" vertex="1" parent="l6hNSntbj8wJOxNSr21J-322">
          <mxGeometry x="30" width="162" height="30" as="geometry">
            <mxRectangle width="162" height="30" as="alternateBounds" />
          </mxGeometry>
        </mxCell>
        <mxCell id="l6hNSntbj8wJOxNSr21J-326" value="" style="shape=tableRow;horizontal=0;startSize=0;swimlaneHead=0;swimlaneBody=0;fillColor=none;collapsible=0;dropTarget=0;points=[[0,0.5],[1,0.5]];portConstraint=eastwest;top=0;left=0;right=0;bottom=0;" vertex="1" parent="l6hNSntbj8wJOxNSr21J-312">
          <mxGeometry y="150" width="192" height="30" as="geometry" />
        </mxCell>
        <mxCell id="l6hNSntbj8wJOxNSr21J-327" value="" style="shape=partialRectangle;connectable=0;fillColor=none;top=0;left=0;bottom=0;right=0;editable=1;overflow=hidden;" vertex="1" parent="l6hNSntbj8wJOxNSr21J-326">
          <mxGeometry width="30" height="30" as="geometry">
            <mxRectangle width="30" height="30" as="alternateBounds" />
          </mxGeometry>
        </mxCell>
        <mxCell id="l6hNSntbj8wJOxNSr21J-328" value="Month INT" style="shape=partialRectangle;connectable=0;fillColor=none;top=0;left=0;bottom=0;right=0;align=left;spacingLeft=6;overflow=hidden;" vertex="1" parent="l6hNSntbj8wJOxNSr21J-326">
          <mxGeometry x="30" width="162" height="30" as="geometry">
            <mxRectangle width="162" height="30" as="alternateBounds" />
          </mxGeometry>
        </mxCell>
        <mxCell id="l6hNSntbj8wJOxNSr21J-338" value="" style="shape=tableRow;horizontal=0;startSize=0;swimlaneHead=0;swimlaneBody=0;fillColor=none;collapsible=0;dropTarget=0;points=[[0,0.5],[1,0.5]];portConstraint=eastwest;top=0;left=0;right=0;bottom=0;" vertex="1" parent="l6hNSntbj8wJOxNSr21J-312">
          <mxGeometry y="180" width="192" height="30" as="geometry" />
        </mxCell>
        <mxCell id="l6hNSntbj8wJOxNSr21J-339" value="" style="shape=partialRectangle;connectable=0;fillColor=none;top=0;left=0;bottom=0;right=0;editable=1;overflow=hidden;" vertex="1" parent="l6hNSntbj8wJOxNSr21J-338">
          <mxGeometry width="30" height="30" as="geometry">
            <mxRectangle width="30" height="30" as="alternateBounds" />
          </mxGeometry>
        </mxCell>
        <mxCell id="l6hNSntbj8wJOxNSr21J-340" value="Event VARCHAR(255)" style="shape=partialRectangle;connectable=0;fillColor=none;top=0;left=0;bottom=0;right=0;align=left;spacingLeft=6;overflow=hidden;" vertex="1" parent="l6hNSntbj8wJOxNSr21J-338">
          <mxGeometry x="30" width="162" height="30" as="geometry">
            <mxRectangle width="162" height="30" as="alternateBounds" />
          </mxGeometry>
        </mxCell>
        <mxCell id="l6hNSntbj8wJOxNSr21J-341" value="Location&amp;nbsp;" style="shape=table;startSize=30;container=1;collapsible=1;childLayout=tableLayout;fixedRows=1;rowLines=0;fontStyle=1;align=center;resizeLast=1;html=1;" vertex="1" parent="1">
          <mxGeometry x="36" y="-963" width="252" height="150" as="geometry" />
        </mxCell>
        <mxCell id="l6hNSntbj8wJOxNSr21J-342" value="" style="shape=tableRow;horizontal=0;startSize=0;swimlaneHead=0;swimlaneBody=0;fillColor=none;collapsible=0;dropTarget=0;points=[[0,0.5],[1,0.5]];portConstraint=eastwest;top=0;left=0;right=0;bottom=1;" vertex="1" parent="l6hNSntbj8wJOxNSr21J-341">
          <mxGeometry y="30" width="252" height="30" as="geometry" />
        </mxCell>
        <mxCell id="l6hNSntbj8wJOxNSr21J-343" value="PK" style="shape=partialRectangle;connectable=0;fillColor=none;top=0;left=0;bottom=0;right=0;fontStyle=1;overflow=hidden;whiteSpace=wrap;html=1;" vertex="1" parent="l6hNSntbj8wJOxNSr21J-342">
          <mxGeometry width="30" height="30" as="geometry">
            <mxRectangle width="30" height="30" as="alternateBounds" />
          </mxGeometry>
        </mxCell>
        <mxCell id="l6hNSntbj8wJOxNSr21J-344" value="LocationKey INT" style="shape=partialRectangle;connectable=0;fillColor=none;top=0;left=0;bottom=0;right=0;align=left;spacingLeft=6;fontStyle=5;overflow=hidden;whiteSpace=wrap;html=1;" vertex="1" parent="l6hNSntbj8wJOxNSr21J-342">
          <mxGeometry x="30" width="222" height="30" as="geometry">
            <mxRectangle width="222" height="30" as="alternateBounds" />
          </mxGeometry>
        </mxCell>
        <mxCell id="l6hNSntbj8wJOxNSr21J-345" value="" style="shape=tableRow;horizontal=0;startSize=0;swimlaneHead=0;swimlaneBody=0;fillColor=none;collapsible=0;dropTarget=0;points=[[0,0.5],[1,0.5]];portConstraint=eastwest;top=0;left=0;right=0;bottom=0;" vertex="1" parent="l6hNSntbj8wJOxNSr21J-341">
          <mxGeometry y="60" width="252" height="30" as="geometry" />
        </mxCell>
        <mxCell id="l6hNSntbj8wJOxNSr21J-346" value="" style="shape=partialRectangle;connectable=0;fillColor=none;top=0;left=0;bottom=0;right=0;editable=1;overflow=hidden;whiteSpace=wrap;html=1;" vertex="1" parent="l6hNSntbj8wJOxNSr21J-345">
          <mxGeometry width="30" height="30" as="geometry">
            <mxRectangle width="30" height="30" as="alternateBounds" />
          </mxGeometry>
        </mxCell>
        <mxCell id="l6hNSntbj8wJOxNSr21J-347" value="Continent VARCHA(45)" style="shape=partialRectangle;connectable=0;fillColor=none;top=0;left=0;bottom=0;right=0;align=left;spacingLeft=6;overflow=hidden;whiteSpace=wrap;html=1;" vertex="1" parent="l6hNSntbj8wJOxNSr21J-345">
          <mxGeometry x="30" width="222" height="30" as="geometry">
            <mxRectangle width="222" height="30" as="alternateBounds" />
          </mxGeometry>
        </mxCell>
        <mxCell id="l6hNSntbj8wJOxNSr21J-348" value="" style="shape=tableRow;horizontal=0;startSize=0;swimlaneHead=0;swimlaneBody=0;fillColor=none;collapsible=0;dropTarget=0;points=[[0,0.5],[1,0.5]];portConstraint=eastwest;top=0;left=0;right=0;bottom=0;" vertex="1" parent="l6hNSntbj8wJOxNSr21J-341">
          <mxGeometry y="90" width="252" height="30" as="geometry" />
        </mxCell>
        <mxCell id="l6hNSntbj8wJOxNSr21J-349" value="" style="shape=partialRectangle;connectable=0;fillColor=none;top=0;left=0;bottom=0;right=0;editable=1;overflow=hidden;whiteSpace=wrap;html=1;" vertex="1" parent="l6hNSntbj8wJOxNSr21J-348">
          <mxGeometry width="30" height="30" as="geometry">
            <mxRectangle width="30" height="30" as="alternateBounds" />
          </mxGeometry>
        </mxCell>
        <mxCell id="l6hNSntbj8wJOxNSr21J-350" value="Country VARCHAR(45)" style="shape=partialRectangle;connectable=0;fillColor=none;top=0;left=0;bottom=0;right=0;align=left;spacingLeft=6;overflow=hidden;whiteSpace=wrap;html=1;" vertex="1" parent="l6hNSntbj8wJOxNSr21J-348">
          <mxGeometry x="30" width="222" height="30" as="geometry">
            <mxRectangle width="222" height="30" as="alternateBounds" />
          </mxGeometry>
        </mxCell>
        <mxCell id="l6hNSntbj8wJOxNSr21J-351" value="" style="shape=tableRow;horizontal=0;startSize=0;swimlaneHead=0;swimlaneBody=0;fillColor=none;collapsible=0;dropTarget=0;points=[[0,0.5],[1,0.5]];portConstraint=eastwest;top=0;left=0;right=0;bottom=0;" vertex="1" parent="l6hNSntbj8wJOxNSr21J-341">
          <mxGeometry y="120" width="252" height="30" as="geometry" />
        </mxCell>
        <mxCell id="l6hNSntbj8wJOxNSr21J-352" value="" style="shape=partialRectangle;connectable=0;fillColor=none;top=0;left=0;bottom=0;right=0;editable=1;overflow=hidden;whiteSpace=wrap;html=1;" vertex="1" parent="l6hNSntbj8wJOxNSr21J-351">
          <mxGeometry width="30" height="30" as="geometry">
            <mxRectangle width="30" height="30" as="alternateBounds" />
          </mxGeometry>
        </mxCell>
        <mxCell id="l6hNSntbj8wJOxNSr21J-353" value="City VARCHAR(45)" style="shape=partialRectangle;connectable=0;fillColor=none;top=0;left=0;bottom=0;right=0;align=left;spacingLeft=6;overflow=hidden;whiteSpace=wrap;html=1;" vertex="1" parent="l6hNSntbj8wJOxNSr21J-351">
          <mxGeometry x="30" width="222" height="30" as="geometry">
            <mxRectangle width="222" height="30" as="alternateBounds" />
          </mxGeometry>
        </mxCell>
      </root>
    </mxGraphModel>
  </diagram>
</mxfile>
